<svg width="954" height="575" viewBox="0 0 954 575" fill="none" xmlns="http://www.w3.org/2000/svg">
<path d="M529.606 521.835L878.159 315.601C885.925 310.941 885.925 299.709 878.159 295.049L529.606 88.6949C525.902 86.4246 521.242 86.4246 517.418 88.6949L168.985 294.929C161.218 299.589 161.218 310.821 168.985 315.481L517.538 521.716C521.242 524.105 525.902 524.105 529.606 521.835Z" fill="#2E2E3E"/>
<path d="M522.933 499.725L707.924 390.596C710.827 388.854 710.827 384.656 707.924 382.915L577.67 305.789C576.286 304.94 574.544 304.94 573.116 305.789L388.169 414.918C385.267 416.66 385.267 420.857 388.169 422.599L518.423 499.68C519.807 500.574 521.549 500.574 522.933 499.725Z" stroke="#767676" stroke-width="1.09501" stroke-miterlimit="10" stroke-dasharray="1.64 2.74"/>
<path d="M739.953 371.967L849.728 307.121C852.631 305.38 852.631 301.182 849.728 299.44L719.474 222.314C718.09 221.466 716.349 221.466 714.92 222.314L605.189 287.16C602.286 288.902 602.286 293.1 605.189 294.841L735.443 371.923C736.827 372.816 738.568 372.816 739.953 371.967Z" stroke="#767676" stroke-width="1.09501" stroke-miterlimit="10" stroke-dasharray="1.64 2.74"/>
<path d="M230.659 269.641V424.544C230.659 428.965 228.27 433.147 224.446 435.417L192.184 454.535" stroke="#6B6B7F" stroke-width="0.547503" stroke-linecap="round" stroke-linejoin="round" stroke-dasharray="1.1 1.1"/>
<path d="M48.1914 92.7376V74.6523" stroke="#6B6B7F" stroke-width="0.547503" stroke-miterlimit="10" stroke-linecap="round"/>
<path d="M181.102 238.734L158.398 225.352" stroke="#6B6B7F" stroke-width="0.547503" stroke-miterlimit="10"/>
<path d="M388.426 253.205L331.668 286.781" stroke="#6B6B7F" stroke-width="0.547503" stroke-miterlimit="10" stroke-linecap="round" stroke-linejoin="round"/>
<path fill-rule="evenodd" clip-rule="evenodd" d="M27.2829 20.3632C27.6414 9.60939 36.2446 0.767354 46.9987 0.0504319C59.1867 -0.785977 69.3434 8.89247 69.3434 20.9607C69.3434 27.4129 66.4756 33.1483 61.935 36.9719C60.0232 38.6447 58.7088 41.0345 58.2308 43.5437C58.2308 43.7827 58.1113 44.0216 57.8723 44.1411C50.5834 48.3232 43.5335 49.1596 39.4709 49.2791C38.9929 49.3985 38.6344 49.0401 38.6344 48.5621V45.8139C38.6344 42.4683 37.2006 39.2422 34.6913 37.0914C30.0312 33.0288 27.0439 27.0545 27.2829 20.3632ZM38.6472 52.1462V54.297C38.6472 54.775 39.0057 55.1334 39.4836 55.0139C43.5463 54.8944 50.4767 54.058 57.7656 49.9955C58.0046 49.876 58.1241 49.637 58.1241 49.2785V48.5616C58.1241 47.9642 57.5266 47.6057 57.0487 47.8447C49.5208 51.5488 38.6472 52.1462 38.6472 52.1462ZM38.6489 60.1508V58.1196C42.4726 58.1196 49.5225 57.4026 57.0504 53.818C57.5283 53.5791 58.1258 53.9375 58.1258 54.535V55.3714C58.1258 55.7298 58.0063 55.9688 57.7673 56.0883C51.3148 59.9119 43.787 60.7483 39.4853 60.8678C39.0074 60.9873 38.6489 60.6288 38.6489 60.1508ZM57.6518 63.7344C56.5764 66.6021 52.7527 68.6334 48.3316 68.6334C44.6274 68.6334 41.4012 67.1995 39.7283 64.9293C39.3698 64.4513 39.7283 63.7344 40.3257 63.7344C44.6274 63.6149 50.9604 62.7785 56.9349 59.7914C57.4128 59.5524 58.0103 59.9108 58.0103 60.5083V62.0616C58.0103 62.659 57.8908 63.2565 57.6518 63.7344Z" fill="#FFC533"/>
<path d="M45.7694 187.587L1.00564 161.148C-0.33521 160.325 -0.33521 158.37 1.00564 157.65L48.348 129.668L95.6904 157.65C97.0312 158.473 97.0312 160.428 95.6904 161.148L50.9266 187.587C49.4826 188.513 47.4197 188.513 45.7694 187.587Z" fill="#0B86B8"/>
<path d="M45.8788 172.664L1.11502 146.225C-0.225836 145.402 -0.225836 143.447 1.11502 142.727L45.8788 116.288C47.5291 115.362 49.592 115.362 51.1391 116.288L95.9029 142.727C97.2438 143.55 97.2438 145.505 95.9029 146.225L51.1391 172.664C49.4888 173.693 47.426 173.693 45.8788 172.664Z" fill="#0A95CD"/>
<path d="M45.8812 157.853L1.22048 131.414C-0.120369 130.591 -0.120369 128.636 1.22048 127.813L45.8812 101.374C47.5314 100.448 49.4911 100.448 51.1414 101.374L95.8021 127.813C97.1429 128.636 97.1429 130.591 95.8021 131.414L51.1414 157.853C49.4911 158.779 47.5314 158.779 45.8812 157.853Z" fill="#009EDB"/>
<path d="M74.1357 127.298C74.1357 127.195 74.0326 127.093 73.9294 126.99L70.01 124.932C69.7006 124.726 69.0817 124.726 68.7723 124.932L64.8529 126.99C64.5435 127.195 64.5435 127.504 64.8529 127.607L65.4718 127.916L62.79 129.356L50.3098 127.813L62.8932 121.126L64.234 121.846C64.4403 121.949 64.7497 122.052 65.0592 121.949C65.3686 121.949 65.5749 121.743 65.678 121.64L67.5346 117.834C67.7409 117.525 67.0189 117.216 66.5032 117.216L59.3863 118.245C59.0769 118.245 58.8706 118.451 58.7675 118.554C58.6644 118.76 58.7675 118.863 58.9738 118.965L60.3146 119.686L42.2647 129.253L40.305 122.566L43.3993 120.92C44.637 121.126 45.9778 120.92 47.0093 120.406C48.4533 119.686 48.4533 118.451 47.0093 117.628C45.5653 116.908 43.2961 116.908 41.8521 117.628C40.9239 118.142 40.6144 118.76 40.9239 119.48L37.2107 121.434C36.9013 121.64 36.695 121.846 36.695 122.155C36.695 122.155 36.695 122.155 36.695 122.257L38.9641 131.105L37.1076 132.031C35.0447 131.516 32.4662 131.722 30.8159 132.648C28.6499 133.78 28.6499 135.631 30.8159 136.763C31.8473 137.277 33.2913 137.586 34.7353 137.586C36.1793 137.586 37.6233 137.277 38.6547 136.763C40.305 135.837 40.7176 134.5 39.6862 133.471L47.0093 129.562L63.4089 131.208C63.512 131.208 63.512 131.208 63.6152 131.208C64.1309 131.208 64.5435 131.105 64.8529 130.899L68.1534 129.15L68.8755 129.562C69.1849 129.767 69.8037 129.767 70.1132 129.562L74.0326 127.504C74.0326 127.504 74.1357 127.401 74.1357 127.298Z" fill="white"/>
<path d="M517.094 572.289L97.8031 324.114C90.7532 319.932 90.7532 309.776 97.8031 305.594L517.094 57.5391C520.439 55.5078 524.621 55.5078 528.087 57.5391L947.377 305.713C954.427 309.896 954.427 320.052 947.377 324.234L527.967 572.289C524.621 574.32 520.439 574.32 517.094 572.289Z" stroke="#38D2DF" stroke-width="1.09658" stroke-miterlimit="10"/>
<path d="M517.093 564.998L97.8031 316.824C90.7532 312.642 90.7532 302.485 97.8031 298.303L517.093 50.1289C520.439 48.0976 524.621 48.0976 528.087 50.1289L947.258 298.303C954.307 302.485 954.307 312.642 947.258 316.824L527.967 564.998C524.621 567.03 520.439 567.03 517.093 564.998Z" stroke="#38D2DF" stroke-width="1.09658" stroke-miterlimit="10"/>
<path d="M517.093 556.635L97.8031 308.461C90.7532 304.278 90.7532 294.122 97.8031 289.94L517.093 41.7656C520.439 39.7344 524.621 39.7344 528.087 41.7656L947.258 289.94C954.307 294.122 954.307 304.278 947.258 308.461L527.967 556.635C524.621 558.547 520.439 558.547 517.093 556.635Z" stroke="#38D2DF" stroke-width="1.09658" stroke-miterlimit="10"/>
<path d="M97.8008 305.712L112.976 281.217L126 288.983L141.295 264.608L154.2 272.255L169.495 247.88L182.519 255.527L197.694 231.152L210.719 238.799L226.014 214.424L238.918 222.19L254.213 197.695L267.238 205.462L282.413 181.087L295.437 188.734L310.732 164.359L323.637 172.006L338.932 147.63L351.956 155.278L367.131 130.902L380.156 138.669L395.45 114.174L408.355 121.941L423.65 97.5654L436.675 105.213L451.85 80.8372L464.874 88.4844L480.169 64.109L493.074 71.7562L508.369 47.3809L521.393 55.1475" stroke="#38D2DF" stroke-width="1.09658" stroke-miterlimit="10"/>
<path d="M527.742 572.289L543.037 547.914L556.061 555.561L571.237 531.186L584.261 538.953L599.556 514.458L612.461 522.224L627.755 497.849L640.78 505.496L655.955 481.121L668.979 488.768L684.274 464.393L697.179 472.04L712.474 447.665L725.498 455.431L740.673 430.936L753.698 438.703L768.993 414.328L781.897 421.975L797.192 397.6L810.217 405.247L825.392 380.871L838.416 388.518L853.711 364.143L866.616 371.91L881.911 347.415L894.935 355.182L910.11 330.806L923.135 338.453L938.429 314.078L950.498 321.247" stroke="#38D2DF" stroke-width="1.09658" stroke-miterlimit="10"/>
<path d="M946.073 304.994L929.583 279.305L916.678 287.071L901.384 262.696L888.479 270.343L873.184 245.968L860.16 253.615L844.984 229.24L831.96 236.887L816.665 212.512L803.76 220.159L788.466 195.783L775.441 203.55L760.266 179.175L747.241 186.822L731.947 162.446L719.042 170.094L703.747 145.718L690.723 153.365L675.547 128.99L662.523 136.637L647.228 112.262L634.323 120.029L619.029 95.6533L606.004 103.3L590.829 78.9251L577.805 86.5723L562.51 62.1969L549.605 69.8441L534.31 45.4687L521.047 55.6251" stroke="#38D2DF" stroke-width="1.09658" stroke-miterlimit="10"/>
<path d="M518.417 572.885L503.122 548.51L490.217 556.157L474.923 531.782L461.898 539.548L446.723 515.173L433.699 522.82L418.404 498.445L405.499 506.092L390.204 481.717L377.18 489.364L362.005 464.988L348.98 472.636L333.685 448.26L320.781 456.027L305.486 431.652L292.461 439.299L277.286 414.923L264.262 422.571L248.967 398.195L236.062 405.842L220.767 381.467L207.743 389.114L192.568 364.739L179.543 372.506L164.249 348.13L151.344 355.777L136.049 331.402L123.025 339.049L107.849 314.674L94.5859 321.246" stroke="#38D2DF" stroke-width="1.09658" stroke-miterlimit="10"/>
<path d="M163.783 225.352L158.047 228.817C157.928 228.937 157.689 228.817 157.689 228.698L154.821 223.56C154.701 223.321 154.94 223.082 155.179 223.082L163.783 224.755C164.022 224.755 164.022 225.113 163.783 225.352Z" fill="#6B6B7F"/>
<path d="M337.638 286.419L331.903 282.954C331.783 282.834 331.544 282.954 331.544 283.073L328.676 288.211C328.557 288.45 328.796 288.689 329.035 288.689L337.638 287.016C337.877 286.897 337.877 286.538 337.638 286.419Z" fill="#6B6B7F"/>
<path d="M419.211 469.695L362.453 503.271" stroke="#FF53F3" stroke-width="0.547503" stroke-miterlimit="10"/>
<path d="M414.088 469.23L419.824 472.695C419.944 472.814 420.182 472.695 420.182 472.575L423.05 467.437C423.17 467.198 422.931 466.959 422.692 466.959L414.088 468.632C413.849 468.752 413.849 469.11 414.088 469.23Z" fill="#FF53F3"/>
<path d="M367.068 503.872L361.332 500.407C361.213 500.287 360.974 500.407 360.974 500.526L358.106 505.664C357.987 505.903 358.225 506.142 358.464 506.142L367.068 504.469C367.307 504.35 367.307 503.992 367.068 503.872Z" fill="#FF53F3"/>
<path d="M384.72 252.007L390.456 255.353C390.575 255.472 390.814 255.353 390.814 255.233L393.682 250.095C393.801 249.856 393.562 249.617 393.323 249.617L384.72 251.29C384.601 251.529 384.481 251.887 384.72 252.007Z" fill="#6B6B7F"/>
<path d="M453.343 361.014C445.012 355.942 423.332 343.431 415.001 338.358C412.372 336.805 409.027 336.805 406.398 338.358L381.894 352.802C378.907 354.594 375.203 354.594 372.215 352.802L320.488 322.119" stroke="#6B6B7F" stroke-width="0.547503" stroke-miterlimit="10" stroke-linecap="round"/>
<path d="M852.302 377.182L795.254 344.045" stroke="#6B6B7F" stroke-width="0.547503" stroke-miterlimit="10" stroke-linecap="round"/>
<path d="M645.389 253.706L601.707 226.878C599.078 225.325 595.732 225.325 593.103 226.878L411.449 334.736" stroke="#6B6B7F" stroke-width="0.547503" stroke-miterlimit="10" stroke-linecap="round"/>
<path d="M266.899 289.516L181.105 238.734" stroke="#6B6B7F" stroke-width="0.547503" stroke-miterlimit="10"/>
<path d="M259.142 288.202L264.877 284.856C264.997 284.737 265.236 284.856 265.236 284.976L268.104 290.114C268.223 290.353 267.984 290.592 267.745 290.592L259.142 288.919C259.022 288.68 258.903 288.321 259.142 288.202Z" fill="#6B6B7F"/>
<path d="M328.697 323.27L322.961 326.735C322.842 326.855 322.603 326.735 322.603 326.616L319.735 321.478C319.615 321.239 319.854 321 320.093 321L328.697 322.673C328.936 322.792 328.936 323.151 328.697 323.27Z" fill="#6B6B7F"/>
<path d="M449.091 360.852L454.827 357.507C454.946 357.387 455.185 357.507 455.185 357.626L458.053 362.764C458.172 363.003 457.933 363.242 457.694 363.242L449.091 361.569C448.972 361.45 448.852 361.091 449.091 360.852Z" fill="#6B6B7F"/>
<path d="M640.72 254.09L646.456 250.745C646.575 250.625 646.814 250.745 646.814 250.864L649.682 256.002C649.801 256.241 649.562 256.48 649.323 256.48L640.72 254.807C640.601 254.688 640.481 254.329 640.72 254.09Z" fill="#6B6B7F"/>
<path d="M312.323 518.059L284.699 521.772V535.091L294.79 558.27L332.631 564.417L360.255 547.513V534.194L350.164 524.334L312.323 518.059Z" fill="#D3408D"/>
<path d="M307.025 518.822L284.699 521.768V535.086L294.79 558.265L307.025 560.186V518.822Z" fill="#FC88CB"/>
<path d="M312.323 504.738L284.699 521.77L294.79 544.949L332.631 551.096L360.255 534.192L350.164 511.013L312.323 504.738Z" fill="#F975BB"/>
<path d="M294.793 544.949L332.634 551.096V564.414L294.793 558.268V544.949Z" fill="#EA5EA1"/>
<path d="M534.154 222.392L447 273.931C445.091 275.073 442.674 275.073 440.765 273.931L367.607 231.024C363.662 228.739 363.662 222.9 367.607 220.615L454.761 169.076C456.669 167.933 459.087 167.933 460.995 169.076L534.154 211.982C538.098 214.267 538.098 219.98 534.154 222.392Z" fill="#38568B"/>
<path d="M364.809 206.017L537.081 197.512V217.188L364.809 225.693V206.017Z" fill="#38568B"/>
<path d="M534.154 202.714L447 254.253C445.091 255.395 442.674 255.395 440.765 254.253L367.607 211.346C363.662 209.061 363.662 203.222 367.607 200.937L454.761 149.398C456.669 148.255 459.087 148.255 460.995 149.398L534.154 192.305C538.098 194.59 538.098 200.429 534.154 202.714Z" fill="#4C6BA1"/>
<path d="M521.552 196.37L493.306 213.126L464.934 196.37L493.306 103.955L521.552 196.37Z" fill="#FF9248"/>
<path d="M495.851 201.955L464.934 196.37V98.1484L495.851 103.734V201.955Z" fill="#FF9248"/>
<path d="M521.558 196.37L493.312 213.126V114.905L521.558 98.1484V196.37Z" fill="#EA7628"/>
<path d="M521.552 98.1471L493.306 114.904L464.934 98.1471L493.306 81.5176L521.552 98.1471Z" fill="#FFA05F"/>
<path d="M472.188 224.927L443.943 241.684L387.324 208.298L415.57 191.541L472.188 224.927Z" fill="#4489B8"/>
<path d="M418.114 213.886L387.324 208.3V174.914L418.114 180.373V213.886Z" fill="#4489B8"/>
<path d="M472.183 224.927L443.938 241.684V208.298L472.183 191.541V224.927Z" fill="#267EAA"/>
<path d="M472.188 191.542L443.943 208.299L387.324 174.913L415.57 158.156L472.188 191.542Z" fill="#52A4D1"/>
<path d="M499.883 177.879L502.243 159.485C502.35 158.749 503.316 158.539 503.745 159.17L507.392 165.581C507.714 166.212 508.787 166.107 508.894 165.371L515.76 128.057" stroke="white" stroke-width="1.09501" stroke-miterlimit="10" stroke-linecap="round" stroke-linejoin="round"/>
<path d="M491.268 100.683L495.975 97.3827C496.103 97.2558 496.23 97.1289 496.23 97.0019C496.23 96.748 495.848 96.4941 495.339 96.4941C495.085 96.4941 494.958 96.4941 494.83 96.6211L489.232 99.4138C489.105 99.4138 489.105 99.5408 488.978 99.5408C488.723 99.6677 488.469 99.9216 488.469 100.175C488.469 100.683 489.232 101.191 490.123 101.191C490.504 101.191 491.013 100.937 491.268 100.683Z" fill="white"/>
<path d="M500.815 93.7015C495.853 90.7818 487.964 90.7818 483.002 93.7015C480.967 94.9709 479.694 96.6212 479.312 98.2714C479.312 98.3984 479.44 98.5253 479.567 98.6523L492.29 106.142C492.417 106.269 492.672 106.269 492.926 106.269C495.853 106.142 498.652 105.38 500.688 104.111C505.777 101.318 505.777 96.6212 500.815 93.7015ZM493.308 105.38L481.221 98.1445C481.475 96.7481 482.621 95.4787 484.275 94.4631C488.473 91.9243 495.344 91.9243 499.67 94.4631C503.868 97.002 503.868 101.064 499.67 103.476C497.888 104.492 495.725 105.126 493.308 105.38Z" fill="white"/>
<path d="M486.442 95.353L485.806 94.9722C485.551 94.8452 485.297 94.8452 485.042 94.9722C484.788 95.0991 484.788 95.353 485.042 95.353L485.679 95.7338C485.933 95.8608 486.188 95.8608 486.442 95.7338C486.569 95.7338 486.569 95.4799 486.442 95.353Z" fill="white"/>
<path d="M492.17 93.5762C492.17 93.4492 491.916 93.3223 491.661 93.3223C491.407 93.3223 491.152 93.4492 491.152 93.5762V94.2109C491.152 94.3378 491.152 94.3378 491.28 94.4648C491.407 94.4648 491.534 94.5917 491.661 94.5917C491.916 94.5917 492.17 94.4648 492.17 94.3378V93.5762Z" fill="white"/>
<path d="M497.632 95.7338C497.887 95.8608 498.141 95.8608 498.396 95.7338L499.032 95.353C499.286 95.2261 499.286 94.9722 499.032 94.9722C498.777 94.8452 498.523 94.8452 498.268 94.9722L497.632 95.353C497.378 95.4799 497.378 95.6069 497.632 95.7338Z" fill="white"/>
<path d="M501.318 98.9043H500.427C500.172 98.9043 499.918 99.0312 499.918 99.1582C499.918 99.2851 499.918 99.2851 500.045 99.4121C500.172 99.4121 500.3 99.539 500.427 99.539H501.318C501.572 99.539 501.826 99.4121 501.826 99.2851C501.826 99.0312 501.572 98.9043 501.318 98.9043Z" fill="white"/>
<path d="M498.778 102.716L498.142 102.335C497.887 102.209 497.633 102.209 497.378 102.335C497.124 102.462 497.124 102.716 497.378 102.716L498.015 103.097C498.269 103.224 498.523 103.224 498.778 103.097C498.905 102.97 498.905 102.843 498.778 102.716Z" fill="white"/>
<path d="M424.201 179.325C424.517 179.48 424.833 179.48 424.991 179.325L426.098 178.705C426.414 178.55 426.414 178.395 426.098 178.239C425.782 178.084 425.465 178.084 425.307 178.239L424.201 178.86C424.042 179.015 424.042 179.17 424.201 179.325Z" fill="white"/>
<path d="M427.686 177.306C428.003 177.461 428.319 177.461 428.477 177.306L429.583 176.685C429.9 176.53 429.9 176.375 429.583 176.22C429.267 176.065 428.951 176.065 428.793 176.22L427.686 176.84C427.37 176.995 427.37 177.151 427.686 177.306Z" fill="white"/>
<path d="M431.014 175.447C431.33 175.602 431.646 175.602 431.804 175.447L431.962 175.292L432.12 175.447C432.436 175.602 432.753 175.602 432.911 175.447C433.227 175.292 433.227 175.136 432.911 174.981L432.278 174.671C431.962 174.516 431.646 174.516 431.488 174.671L430.855 174.981C430.855 174.981 430.855 175.292 431.014 175.447Z" fill="white"/>
<path d="M437.495 178.392L438.602 179.013C438.918 179.168 439.234 179.168 439.392 179.013C439.708 178.858 439.708 178.702 439.392 178.547L438.285 177.927C437.969 177.772 437.653 177.772 437.495 177.927C437.179 178.082 437.179 178.237 437.495 178.392Z" fill="white"/>
<path d="M440.651 180.254L441.758 180.874C442.074 181.029 442.39 181.029 442.548 180.874C442.865 180.719 442.865 180.564 442.548 180.409L441.442 179.788C441.126 179.633 440.809 179.633 440.651 179.788C440.493 179.943 440.335 180.098 440.651 180.254Z" fill="white"/>
<path d="M434.331 176.535L435.438 177.155C435.754 177.31 436.07 177.31 436.228 177.155C436.544 177 436.544 176.845 436.228 176.69L435.121 176.069C434.805 175.914 434.489 175.914 434.331 176.069C434.015 176.225 434.015 176.535 434.331 176.535Z" fill="white"/>
<path d="M445.716 182.12L444.61 181.499C444.293 181.344 443.977 181.344 443.819 181.499C443.503 181.654 443.503 181.809 443.819 181.965L444.926 182.585C445.242 182.74 445.558 182.74 445.716 182.585C445.874 182.43 445.874 182.275 445.716 182.12Z" fill="white"/>
<path d="M448.406 183.669L447.774 183.359C447.457 183.203 447.141 183.203 446.983 183.359C446.825 183.514 446.667 183.669 446.983 183.824L447.141 183.979L446.983 184.134C446.667 184.289 446.667 184.444 446.983 184.6C447.299 184.755 447.616 184.755 447.774 184.6L448.406 184.289C448.564 183.979 448.564 183.824 448.406 183.669Z" fill="white"/>
<path d="M438.591 189.253C438.275 189.098 437.959 189.098 437.801 189.253L436.694 189.874C436.378 190.029 436.378 190.184 436.694 190.339C437.01 190.494 437.327 190.494 437.485 190.339L438.591 189.718C438.907 189.563 438.907 189.253 438.591 189.253Z" fill="white"/>
<path d="M442.076 187.235C441.759 187.08 441.443 187.08 441.285 187.235L440.179 187.856C439.862 188.011 439.862 188.166 440.179 188.321C440.495 188.476 440.811 188.476 440.969 188.321L442.076 187.701C442.392 187.546 442.392 187.391 442.076 187.235Z" fill="white"/>
<path d="M445.544 185.22C445.228 185.065 444.912 185.065 444.754 185.22L443.647 185.84C443.331 185.995 443.331 186.151 443.647 186.306C443.963 186.461 444.28 186.461 444.438 186.306L445.544 185.685C445.702 185.685 445.702 185.375 445.544 185.22Z" fill="white"/>
<path d="M435.271 191.11C434.955 190.955 434.639 190.955 434.481 191.11L434.322 191.266L434.164 191.11C433.848 190.955 433.532 190.955 433.374 191.11C433.058 191.266 433.058 191.421 433.374 191.576L434.006 191.886C434.322 192.041 434.639 192.041 434.797 191.886L435.429 191.576C435.429 191.421 435.429 191.266 435.271 191.11Z" fill="white"/>
<path d="M431.958 189.874L430.852 189.253C430.536 189.098 430.219 189.098 430.061 189.253C429.745 189.408 429.745 189.563 430.061 189.718L431.168 190.339C431.484 190.494 431.8 190.494 431.958 190.339C432.275 190.339 432.275 190.029 431.958 189.874Z" fill="white"/>
<path d="M428.783 188.167L427.676 187.546C427.36 187.391 427.044 187.391 426.886 187.546C426.569 187.701 426.569 187.856 426.886 188.011L427.992 188.632C428.308 188.787 428.625 188.787 428.783 188.632C429.099 188.477 429.099 188.322 428.783 188.167Z" fill="white"/>
<path d="M429.902 183.824L420.1 178.239C419.625 178.084 418.993 178.084 418.677 178.239L411.563 182.273C411.088 182.428 411.088 182.893 411.563 183.048L421.365 188.632C421.839 188.788 422.471 188.788 422.787 188.632L429.902 184.599C430.376 184.289 430.376 183.979 429.902 183.824ZM422.155 187.392L413.934 182.583L419.467 179.325L427.688 184.134L422.155 187.392Z" fill="white"/>
<path d="M437.654 185.995C437.97 185.995 438.128 185.995 438.286 185.995L442.238 184.134C442.396 184.134 442.396 183.979 442.396 183.979C442.396 183.824 442.396 183.824 442.238 183.824L437.97 182.117C437.812 182.117 437.654 182.117 437.496 182.117C437.337 182.117 437.338 182.272 437.338 182.427V183.668L432.279 183.824C431.804 183.824 431.33 184.134 431.488 184.289C431.488 184.444 431.646 184.599 431.804 184.599C431.962 184.599 432.12 184.754 432.437 184.754L437.496 184.599V185.84C437.496 185.84 437.496 185.84 437.654 185.995Z" fill="white"/>
<path d="M326.497 307.024V288.504H270.097V307.024C269.978 311.326 272.726 315.747 278.342 318.973C289.335 325.545 307.139 325.545 318.252 318.973C323.868 315.747 326.616 311.326 326.497 307.024Z" fill="#ED6A5A"/>
<path d="M318.248 277.275C329.241 283.847 329.241 294.361 318.248 300.933C307.255 307.505 289.451 307.505 278.339 300.933C267.345 294.361 267.345 283.847 278.339 277.275C289.332 270.822 307.255 270.822 318.248 277.275Z" fill="#F29387"/>
<path d="M318.6 286.472V273.209H277.974V286.472C277.854 289.579 279.886 292.685 283.948 295.075C291.835 299.735 304.74 299.735 312.626 295.075C316.689 292.685 318.6 289.579 318.6 286.472Z" fill="#FFB65C"/>
<path d="M312.624 265.087C320.51 269.747 320.51 277.394 312.624 282.054C304.737 286.714 291.832 286.714 283.946 282.054C276.06 277.394 276.06 269.747 283.946 265.087C291.832 260.307 304.737 260.307 312.624 265.087Z" fill="#FFC885"/>
<path d="M318.6 269.744V256.48H277.974V269.744C277.854 272.85 279.886 275.957 283.948 278.347C291.835 283.007 304.74 283.007 312.626 278.347C316.689 276.076 318.6 272.97 318.6 269.744Z" fill="#91BA4C"/>
<path d="M312.624 248.356C320.51 253.016 320.51 260.663 312.624 265.323C304.737 269.983 291.832 269.983 283.946 265.323C276.06 260.663 276.06 253.016 283.946 248.356C291.832 243.696 304.737 243.696 312.624 248.356Z" fill="#9FCC53"/>
<path d="M318.6 252.179V238.916H277.974V252.179C277.854 255.286 279.886 258.392 283.948 260.782C291.835 265.442 304.74 265.442 312.626 260.782C316.689 258.512 318.6 255.405 318.6 252.179Z" fill="#369DAD"/>
<path d="M312.624 230.792C320.51 235.452 320.51 243.099 312.624 247.759C304.737 252.419 291.832 252.419 283.946 247.759C276.06 243.099 276.06 235.452 283.946 230.792C291.832 226.132 304.737 226.132 312.624 230.792Z" fill="#40B9CC"/>
<g opacity="0.5">
<g opacity="0.5">
<path opacity="0.5" d="M293.628 234.377L286.578 238.559C286.339 238.678 286.339 238.917 286.578 238.917L286.936 239.156C287.175 239.276 287.414 239.276 287.653 239.156L294.703 234.974L293.628 234.377Z" fill="white"/>
<path opacity="0.5" d="M299.368 232.225L299.846 231.986C300.085 231.866 300.085 231.627 299.846 231.627L299.488 231.388C299.249 231.269 299.01 231.269 298.771 231.388L298.293 231.627L299.368 232.225Z" fill="white"/>
<path opacity="0.5" d="M299.245 233.061L296.855 231.627C296.735 231.507 296.496 231.507 296.377 231.627L293.629 233.3C293.509 233.419 293.509 233.539 293.629 233.539L296.018 234.972C296.138 235.092 296.377 235.092 296.496 234.972L299.245 233.3C299.484 233.3 299.484 233.18 299.245 233.061Z" fill="white"/>
</g>
<g opacity="0.5">
<path opacity="0.5" d="M293.036 240.473L291.363 241.429C291.124 241.548 291.124 241.787 291.363 241.787L291.721 242.026C291.96 242.145 292.199 242.145 292.438 242.026L294.111 241.07L293.036 240.473Z" fill="white"/>
<path opacity="0.5" d="M298.767 238.441L304.741 234.976C304.98 234.857 304.98 234.618 304.741 234.618L304.383 234.379C304.144 234.259 303.905 234.259 303.666 234.379L297.691 237.844L298.767 238.441Z" fill="white"/>
<path opacity="0.5" d="M298.76 239.277L296.371 237.844C296.251 237.724 296.012 237.724 295.893 237.844L293.144 239.516C293.025 239.636 293.025 239.755 293.144 239.755L295.534 241.189C295.654 241.309 295.893 241.309 296.012 241.189L298.76 239.516C298.88 239.397 298.88 239.277 298.76 239.277Z" fill="white"/>
</g>
<g opacity="0.5">
<path opacity="0.5" d="M307.13 239.277L309.52 237.843C309.759 237.724 309.759 237.485 309.52 237.485L309.161 237.246C308.922 237.126 308.683 237.126 308.444 237.246L306.055 238.68L307.13 239.277Z" fill="white"/>
<path opacity="0.5" d="M301.513 241.309L296.375 244.415C296.136 244.535 296.136 244.774 296.375 244.774L296.733 245.013C296.972 245.132 297.211 245.132 297.45 245.013L302.588 241.906L301.513 241.309Z" fill="white"/>
<path opacity="0.5" d="M307.128 239.994L304.738 238.56C304.618 238.441 304.379 238.441 304.26 238.56L301.511 240.233C301.392 240.353 301.392 240.472 301.511 240.472L303.901 241.906C304.021 242.025 304.26 242.025 304.379 241.906L307.128 240.233C307.247 240.233 307.247 240.114 307.128 239.994Z" fill="white"/>
</g>
</g>
<path d="M189.012 256.429C196.536 256.429 202.634 250.33 202.634 242.807C202.634 235.284 196.536 229.186 189.012 229.186C181.489 229.186 175.391 235.284 175.391 242.807C175.391 250.33 181.489 256.429 189.012 256.429Z" fill="#38D2DF"/>
<path d="M192.352 241.255H189.962L189.246 239.104C189.246 238.984 189.126 238.984 189.007 238.984C188.887 238.984 188.887 238.984 188.768 239.104L188.051 241.255H185.661C185.541 241.255 185.541 241.374 185.422 241.374C185.422 241.494 185.422 241.613 185.541 241.613L187.453 243.047L186.736 245.317C186.736 245.437 186.736 245.556 186.856 245.556C186.975 245.556 186.975 245.556 187.095 245.556L189.007 244.242L190.918 245.556H191.038H191.157C191.277 245.556 191.277 245.437 191.277 245.317L190.56 243.047L192.472 241.613C192.591 241.613 192.591 241.494 192.591 241.374C192.591 241.374 192.472 241.255 192.352 241.255Z" fill="#191925"/>
<path d="M195.817 238.508C194.981 236.118 189.723 235.282 189.126 235.162H189.006H188.887C188.289 235.282 183.032 236.118 182.195 238.508V238.627V238.747C182.195 239.225 182.673 250.098 188.887 251.771H189.006H189.126C195.339 250.098 195.817 239.225 195.817 238.747V238.508ZM189.006 250.576C183.988 249.142 183.39 239.942 183.39 238.747C183.988 237.432 187.094 236.596 189.006 236.237C190.918 236.476 194.144 237.432 194.622 238.747C194.622 239.942 194.025 249.142 189.006 250.576Z" fill="#191925"/>
<path d="M326.497 307.024V288.504H270.097V307.024C269.978 311.326 272.726 315.747 278.342 318.973C289.335 325.545 307.139 325.545 318.252 318.973C323.868 315.747 326.616 311.326 326.497 307.024Z" fill="#E54848"/>
<path d="M318.248 277.275C329.241 283.847 329.241 294.361 318.248 300.933C307.255 307.505 289.451 307.505 278.339 300.933C267.345 294.361 267.345 283.847 278.339 277.275C289.332 270.822 307.255 270.822 318.248 277.275Z" fill="#E87272"/>
<path d="M318.6 286.472V273.209H277.974V286.472C277.854 289.579 279.886 292.685 283.948 295.075C291.835 299.735 304.74 299.735 312.626 295.075C316.689 292.685 318.6 289.579 318.6 286.472Z" fill="#FFA72D"/>
<path d="M312.624 265.087C320.51 269.747 320.51 277.394 312.624 282.054C304.737 286.714 291.832 286.714 283.946 282.054C276.06 277.394 276.06 269.747 283.946 265.087C291.832 260.307 304.737 260.307 312.624 265.087Z" fill="#FFC24C"/>
<path d="M318.6 269.744V256.48H277.974V269.744C277.854 272.85 279.886 275.957 283.948 278.347C291.835 283.007 304.74 283.007 312.626 278.347C316.689 276.076 318.6 272.97 318.6 269.744Z" fill="#FFA72D"/>
<path d="M312.624 248.356C320.51 253.016 320.51 260.663 312.624 265.323C304.737 269.983 291.832 269.983 283.946 265.323C276.06 260.663 276.06 253.016 283.946 248.356C291.832 243.696 304.737 243.696 312.624 248.356Z" fill="#FFC24C"/>
<path d="M318.6 252.179V238.916H277.974V252.179C277.854 255.286 279.886 258.392 283.948 260.782C291.835 265.442 304.74 265.442 312.626 260.782C316.689 258.512 318.6 255.405 318.6 252.179Z" fill="#FFA72D"/>
<path d="M312.624 230.792C320.51 235.452 320.51 243.099 312.624 247.759C304.737 252.419 291.832 252.419 283.946 247.759C276.06 243.099 276.06 235.452 283.946 230.792C291.832 226.132 304.737 226.132 312.624 230.792Z" fill="#FFC24C"/>
<path d="M293.628 234.377L286.578 238.559C286.339 238.678 286.339 238.917 286.578 238.917L286.936 239.156C287.175 239.276 287.414 239.276 287.653 239.156L294.703 234.974L293.628 234.377Z" fill="white"/>
<path d="M299.368 232.225L299.846 231.986C300.085 231.866 300.085 231.627 299.846 231.627L299.488 231.388C299.249 231.269 299.01 231.269 298.771 231.388L298.293 231.627L299.368 232.225Z" fill="white"/>
<path d="M299.245 233.061L296.855 231.627C296.735 231.507 296.496 231.507 296.377 231.627L293.629 233.3C293.509 233.419 293.509 233.539 293.629 233.539L296.018 234.972C296.138 235.092 296.377 235.092 296.496 234.972L299.245 233.3C299.484 233.3 299.484 233.18 299.245 233.061Z" fill="white"/>
<path d="M293.036 240.473L291.363 241.429C291.124 241.548 291.124 241.787 291.363 241.787L291.721 242.026C291.96 242.145 292.199 242.145 292.438 242.026L294.111 241.07L293.036 240.473Z" fill="white"/>
<path d="M298.767 238.441L304.741 234.976C304.98 234.857 304.98 234.618 304.741 234.618L304.383 234.379C304.144 234.259 303.905 234.259 303.666 234.379L297.691 237.844L298.767 238.441Z" fill="white"/>
<path d="M298.76 239.277L296.371 237.844C296.251 237.724 296.012 237.724 295.893 237.844L293.144 239.516C293.025 239.636 293.025 239.755 293.144 239.755L295.534 241.189C295.654 241.309 295.893 241.309 296.012 241.189L298.76 239.516C298.88 239.397 298.88 239.277 298.76 239.277Z" fill="white"/>
<path d="M307.13 239.277L309.52 237.843C309.759 237.724 309.759 237.485 309.52 237.485L309.161 237.246C308.922 237.126 308.683 237.126 308.444 237.246L306.055 238.68L307.13 239.277Z" fill="white"/>
<path d="M301.513 241.309L296.375 244.415C296.136 244.535 296.136 244.774 296.375 244.774L296.733 245.013C296.972 245.132 297.211 245.132 297.45 245.013L302.588 241.906L301.513 241.309Z" fill="white"/>
<path d="M307.128 239.994L304.738 238.56C304.618 238.441 304.379 238.441 304.26 238.56L301.511 240.233C301.392 240.353 301.392 240.472 301.511 240.472L303.901 241.906C304.021 242.025 304.26 242.025 304.379 241.906L307.128 240.233C307.247 240.233 307.247 240.114 307.128 239.994Z" fill="white"/>
<path d="M806.474 346.613L798.375 350.6C798.204 350.742 797.881 350.578 797.888 350.428L794.22 343.821C794.069 343.515 794.412 343.23 794.741 343.245L806.507 345.865C806.83 346.029 806.81 346.478 806.474 346.613Z" fill="#6B6B7F"/>
<path d="M619.346 455.504L611.525 459.438C611.359 459.579 611.048 459.417 611.054 459.27L607.52 452.765C607.374 452.463 607.705 452.183 608.023 452.197L619.379 454.768C619.69 454.929 619.671 455.371 619.346 455.504Z" fill="#6B6B7F"/>
<path d="M612.664 455.459L670.699 486.119" stroke="#6B6B7F" stroke-width="0.547503"/>
<path d="M187 445.869C187 445.869 187 444.415 186.275 443.688L180.762 438.163C180.181 437.436 179.456 437.145 178.585 437H160.596C159.725 437 159 437.872 159 438.89V476.255C159 477.273 159.725 478 160.596 478H185.259C186.13 478 186.855 477.128 186.855 476.255L187 445.869Z" fill="#E2E2E2"/>
<path d="M182 466.038H177.16V460.962H182V466.038ZM180.336 454C181.244 454 182 454.725 182 455.595V459.076H176.706C175.95 459.076 175.193 459.656 175.193 460.527V473H170.807V454H180.336ZM168.992 466.038H164V461.107H168.992V466.038ZM165.664 454H168.992V459.221H164V455.595C164 454.725 164.756 454 165.664 454ZM164 471.405V467.779H168.992V473H165.664C164.756 473 164 472.275 164 471.405ZM180.336 473H177.008V467.779H181.849V471.405C182 472.275 181.244 473 180.336 473Z" fill="#F1982C"/>
<path d="M401.472 319.604L381.055 322.329V332.104L388.513 349.116L416.482 353.628L436.9 341.221V331.446L429.442 324.209L401.472 319.604Z" fill="#27AE60"/>
<path d="M397.557 320.166L381.055 322.328V332.103L388.513 349.115L397.557 350.525V320.166Z" fill="#93E4B5"/>
<path d="M401.472 309.826L381.055 322.327L388.513 339.339L416.482 343.85L436.9 331.444L429.442 314.432L401.472 309.826Z" fill="#219653"/>
<path d="M388.508 339.34L416.477 343.851V353.626L388.508 349.115V339.34Z" fill="#6FCF97"/>
<path d="M406.922 318.554C407.403 318.069 404.585 320.875 404.585 320.875C404.276 321.233 403.528 321.501 402.997 321.212C402.466 320.923 402.18 319.519 401.196 318.983C400.211 318.446 398.031 318.616 396.667 319.546L396.66 319.55C395.296 320.482 395.264 321.821 396.248 322.356C397.232 322.893 399.554 322.91 400.083 323.199C400.614 323.489 400.26 323.971 399.712 324.199L396.19 325.874C396.19 325.874 394.494 326.434 396.031 327.608C397.074 328.405 398.12 329.201 399.169 329.995C399.408 330.176 401.111 330.927 401.551 329.201C401.995 327.474 403.279 326.067 406.473 327.809L406.477 327.812C409.673 329.552 407.527 330.488 404.76 330.949C401.993 331.407 403.293 332.312 403.73 332.482C404.167 332.652 405.89 333.318 407.971 334.117C410.055 334.915 410.779 333.825 410.779 333.825L413.115 331.505C413.424 331.147 414.173 330.879 414.704 331.17C415.236 331.458 415.52 332.862 416.505 333.398C417.489 333.934 419.67 333.763 421.033 332.835L421.041 332.829C422.403 331.899 422.435 330.56 421.453 330.023C420.469 329.487 418.148 329.47 417.617 329.181C417.085 328.891 417.441 328.408 417.989 328.181C417.989 328.181 421.021 326.772 421.51 326.506C422.001 326.241 422.733 325.619 421.672 324.773C420.632 323.973 419.586 323.177 418.534 322.384C418.061 322.03 416.506 321.779 416.148 323.179C415.708 324.906 414.422 326.311 411.226 324.569L411.223 324.567C408.027 322.826 410.175 321.891 412.94 321.431C415.247 321.046 414.573 320.144 413.968 319.897C413.523 319.714 411.814 319.061 409.729 318.262C407.926 317.571 406.921 318.552 406.921 318.552" fill="white"/>
<path d="M587.082 208.998L566.664 211.724V221.499L574.123 238.511L602.092 243.022L622.509 230.616V220.841L615.051 213.604L587.082 208.998Z" fill="#27AE60"/>
<path d="M583.166 209.561L566.664 211.722V221.497L574.123 238.509L583.166 239.919V209.561Z" fill="#93E4B5"/>
<path d="M587.082 199.221L566.664 211.721L574.123 228.733L602.092 233.245L622.509 220.838L615.051 203.826L587.082 199.221Z" fill="#219653"/>
<path d="M574.117 228.734L602.086 233.246V243.021L574.117 238.509V228.734Z" fill="#6FCF97"/>
<path d="M592.293 208.097C592.774 207.612 589.956 210.418 589.956 210.418C589.647 210.776 588.899 211.044 588.368 210.755C587.837 210.466 587.551 209.062 586.567 208.526C585.583 207.989 583.402 208.159 582.038 209.089L582.031 209.093C580.667 210.025 580.635 211.364 581.619 211.899C582.604 212.436 584.925 212.453 585.454 212.741C585.985 213.032 585.631 213.514 585.083 213.742L581.561 215.417C581.561 215.417 579.866 215.977 581.402 217.151C582.445 217.948 583.491 218.744 584.54 219.538C584.779 219.719 586.482 220.47 586.923 218.744C587.366 217.017 588.65 215.61 591.844 217.352L591.848 217.355C595.044 219.095 592.898 220.031 590.131 220.491C587.364 220.95 588.664 221.855 589.101 222.025C589.538 222.195 591.261 222.861 593.342 223.66C595.426 224.458 596.151 223.368 596.151 223.368L598.486 221.048C598.795 220.69 599.545 220.422 600.075 220.713C600.608 221.001 600.891 222.405 601.876 222.941C602.86 223.477 605.041 223.306 606.405 222.378L606.412 222.372C607.774 221.442 607.806 220.103 606.824 219.566C605.84 219.03 603.519 219.013 602.988 218.724C602.456 218.434 602.812 217.951 603.36 217.724C603.36 217.724 606.392 216.315 606.881 216.049C607.372 215.784 608.104 215.162 607.043 214.316C606.003 213.516 604.957 212.72 603.905 211.927C603.432 211.573 601.877 211.322 601.519 212.722C601.079 214.449 599.794 215.853 596.598 214.112L596.594 214.11C593.398 212.369 595.546 211.434 598.311 210.974C600.618 210.589 599.944 209.687 599.339 209.44C598.894 209.257 597.185 208.604 595.101 207.805C593.297 207.114 592.292 208.095 592.292 208.095" fill="white"/>
<path d="M667.345 496.938C674.868 496.938 680.966 490.84 680.966 483.317C680.966 475.794 674.868 469.695 667.345 469.695C659.821 469.695 653.723 475.794 653.723 483.317C653.723 490.84 659.821 496.938 667.345 496.938Z" fill="#38D2DF"/>
<path d="M670.704 481.88H668.314L667.597 479.729C667.597 479.609 667.478 479.609 667.358 479.609C667.239 479.609 667.239 479.609 667.119 479.729L666.402 481.88H664.012C663.893 481.88 663.893 481.999 663.773 481.999C663.773 482.119 663.773 482.238 663.893 482.238L665.805 483.672L665.088 485.942C665.088 486.062 665.088 486.181 665.207 486.181C665.327 486.181 665.327 486.181 665.446 486.181L667.358 484.867L669.27 486.181H669.389H669.509C669.628 486.181 669.628 486.062 669.628 485.942L668.912 483.672L670.823 482.238C670.943 482.238 670.943 482.119 670.943 481.999C670.943 481.88 670.823 481.88 670.704 481.88Z" fill="#191925"/>
<path d="M674.157 479.012C673.321 476.622 668.063 475.786 667.466 475.666H667.346H667.227C666.629 475.786 661.372 476.622 660.535 479.012V479.131V479.251C660.535 479.729 661.013 490.602 667.227 492.275H667.346H667.466C673.679 490.602 674.157 479.729 674.157 479.251V479.012ZM667.346 491.199C662.328 489.765 661.73 480.565 661.73 479.37C662.328 478.056 665.434 477.219 667.346 476.861C669.258 477.1 672.484 478.056 672.962 479.37C672.962 480.445 672.365 489.646 667.346 491.199Z" fill="#191925"/>
<path d="M388.114 500.225C395.637 500.225 401.736 494.127 401.736 486.604C401.736 479.081 395.637 472.982 388.114 472.982C380.591 472.982 374.492 479.081 374.492 486.604C374.492 494.127 380.591 500.225 388.114 500.225Z" fill="#38D2DF"/>
<path d="M391.462 485.171H389.072L388.355 483.02C388.355 482.9 388.235 482.9 388.116 482.9C387.996 482.9 387.996 482.9 387.877 483.02L387.16 485.171H384.77C384.651 485.171 384.651 485.29 384.531 485.29C384.531 485.41 384.531 485.529 384.651 485.529L386.563 486.963L385.846 489.233C385.846 489.353 385.846 489.472 385.965 489.472C386.085 489.472 386.085 489.472 386.204 489.472L388.116 488.158L390.028 489.472H390.147H390.267C390.386 489.472 390.386 489.353 390.386 489.233L389.669 486.963L391.581 485.529C391.701 485.529 391.701 485.41 391.701 485.29C391.701 485.171 391.581 485.171 391.462 485.171Z" fill="#191925"/>
<path d="M394.915 482.303C394.078 479.913 388.821 479.077 388.223 478.957H388.104H387.984C387.387 479.077 382.129 479.913 381.293 482.303V482.422V482.542C381.293 483.02 381.771 493.893 387.984 495.566H388.104H388.223C394.437 493.893 394.915 483.02 394.915 482.542V482.303ZM388.104 494.49C383.085 493.057 382.488 483.856 382.488 482.661C383.085 481.347 386.192 480.51 388.104 480.152C390.016 480.391 393.242 481.347 393.72 482.661C393.72 483.736 393.123 492.937 388.104 494.49Z" fill="#191925"/>
<path d="M850.747 387.436C858.27 387.436 864.369 381.338 864.369 373.815C864.369 366.292 858.27 360.193 850.747 360.193C843.224 360.193 837.125 366.292 837.125 373.815C837.125 381.338 843.224 387.436 850.747 387.436Z" fill="#38D2DF"/>
<path d="M854.091 372.38H851.701L850.984 370.229C850.984 370.109 850.864 370.109 850.745 370.109C850.625 370.109 850.625 370.109 850.506 370.229L849.789 372.38H847.399C847.28 372.38 847.28 372.499 847.16 372.499C847.16 372.619 847.16 372.738 847.28 372.738L849.191 374.172L848.475 376.442C848.475 376.562 848.475 376.681 848.594 376.681C848.713 376.681 848.714 376.681 848.833 376.681L850.745 375.367L852.657 376.681H852.776H852.896C853.015 376.681 853.015 376.562 853.015 376.442L852.298 374.172L854.21 372.738C854.33 372.738 854.33 372.619 854.33 372.499C854.33 372.38 854.21 372.38 854.091 372.38Z" fill="#191925"/>
<path d="M857.544 369.512C856.707 367.122 851.45 366.286 850.852 366.166H850.733H850.613C850.016 366.286 844.758 367.122 843.922 369.512V369.631V369.751C843.922 370.229 844.4 381.102 850.613 382.775H850.733H850.852C857.066 381.102 857.544 370.229 857.544 369.751V369.512ZM850.733 381.699C845.714 380.265 845.117 371.065 845.117 369.87C845.714 368.556 848.821 367.719 850.733 367.361C852.645 367.6 855.871 368.556 856.349 369.87C856.349 370.945 855.751 380.146 850.733 381.699Z" fill="#191925"/>
<path d="M95.5526 186.91L76.9375 176.508" stroke="#6B6B7F" stroke-width="0.547503" stroke-miterlimit="10"/>
<path d="M84.3959 177.718L78.6604 181.183C78.5409 181.302 78.3019 181.183 78.3019 181.063L75.4341 175.925C75.3146 175.686 75.5536 175.447 75.7926 175.447L84.3959 177.12C84.6349 177.12 84.6349 177.479 84.3959 177.718Z" fill="#6B6B7F"/>
<path d="M91.0325 187.84L96.768 184.495C96.8875 184.375 97.1265 184.495 97.1265 184.614L99.9942 189.752C100.114 189.991 99.8748 190.23 99.6358 190.23L91.0325 188.557C90.913 188.318 90.7935 187.96 91.0325 187.84Z" fill="#6B6B7F"/>
<path d="M655.686 310.867L678.663 297.719C679.273 297.369 679.583 296.755 679.587 296.138C679.592 295.537 679.667 292.151 679.667 292.151L670.849 289.742C670.288 289.383 669.574 289.368 668.981 289.704L645.178 300.435C645.178 300.435 645.107 303.809 645.098 304.422C645.09 305.027 645.375 305.636 645.959 306.003L653.837 310.812C654.397 311.19 655.112 311.204 655.686 310.867Z" fill="#3EB771"/>
<path d="M655.775 306.879L678.751 293.73C679.955 293.04 679.99 291.319 678.814 290.581L670.937 285.754C670.376 285.394 669.662 285.38 669.069 285.716L646.111 298.865C644.906 299.556 644.872 301.277 646.048 302.015L653.925 306.824C654.486 307.201 655.2 307.216 655.775 306.879Z" fill="#6FCF97"/>
<path d="M692.003 290.153L714.979 277.004C715.589 276.654 715.899 276.04 715.904 275.423C715.908 274.822 715.984 271.436 715.984 271.436L707.165 269.027C706.604 268.668 705.89 268.653 705.297 268.99L681.495 279.72C681.495 279.72 681.423 283.095 681.414 283.707C681.406 284.312 681.692 284.922 682.276 285.288L690.153 290.097C690.714 290.475 691.428 290.489 692.003 290.153Z" fill="#AC52EE"/>
<path d="M692.083 286.166L715.059 273.017C716.264 272.327 716.299 270.606 715.122 269.868L707.245 265.041C706.685 264.681 705.97 264.667 705.377 265.003L682.419 278.152C681.215 278.843 681.18 280.564 682.356 281.302L690.234 286.111C690.794 286.488 691.509 286.503 692.083 286.166Z" fill="#BF8AE5"/>
<path d="M675.325 289.071L685.909 283.3" stroke="#6B6B7F" stroke-width="1.09501" stroke-miterlimit="10"/>
<path d="M676.902 289.101C676.894 289.488 676.672 289.87 676.246 290.166C675.822 290.462 675.219 290.651 674.54 290.638C673.861 290.624 673.266 290.411 672.854 290.098C672.441 289.785 672.234 289.395 672.242 289.008C672.249 288.621 672.472 288.239 672.897 287.943C673.322 287.647 673.924 287.458 674.603 287.471C675.283 287.485 675.877 287.698 676.29 288.011C676.703 288.324 676.91 288.714 676.902 289.101Z" fill="white" stroke="#6B6B7F" stroke-width="0.821255"/>
<path d="M688.484 283.351C688.476 283.738 688.254 284.12 687.829 284.416C687.404 284.712 686.801 284.901 686.122 284.888C685.443 284.874 684.848 284.661 684.436 284.348C684.023 284.035 683.816 283.645 683.824 283.258C683.831 282.871 684.054 282.489 684.479 282.193C684.904 281.897 685.506 281.708 686.185 281.721C686.865 281.735 687.459 281.948 687.872 282.261C688.285 282.574 688.492 282.964 688.484 283.351Z" fill="white" stroke="#6B6B7F" stroke-width="0.821255"/>
<path d="M712.671 303.533L735.647 290.385C736.257 290.035 736.567 289.421 736.572 288.804C736.576 288.203 736.652 284.817 736.652 284.817L727.833 282.408C727.272 282.049 726.558 282.034 725.965 282.37L702.163 293.101C702.163 293.101 702.091 296.475 702.082 297.088C702.074 297.693 702.36 298.302 702.944 298.669L710.821 303.478C711.382 303.856 712.096 303.87 712.671 303.533Z" fill="#E77167"/>
<path d="M712.747 299.547L735.723 286.398C736.928 285.708 736.963 283.987 735.787 283.249L727.909 278.422C727.349 278.062 726.634 278.048 726.041 278.384L703.084 291.533C701.879 292.224 701.844 293.945 703.02 294.683L710.898 299.492C711.458 299.869 712.173 299.884 712.747 299.547Z" fill="#ED938E"/>
<path d="M676.327 288.549C681.969 285.101 695.012 304.267 707.067 296.837" stroke="#6B6B7F" stroke-width="1.09501" stroke-miterlimit="10"/>
<path d="M709.152 296.728C709.144 297.115 708.922 297.497 708.496 297.793C708.072 298.089 707.469 298.278 706.79 298.265C706.111 298.251 705.516 298.038 705.104 297.725C704.691 297.412 704.484 297.022 704.492 296.635C704.499 296.248 704.722 295.866 705.147 295.57C705.572 295.274 706.174 295.085 706.853 295.098C707.533 295.112 708.127 295.325 708.54 295.638C708.953 295.951 709.16 296.341 709.152 296.728Z" fill="white" stroke="#6B6B7F" stroke-width="0.821255"/>
<path d="M748.972 282.821L771.948 269.672C772.558 269.322 772.868 268.708 772.872 268.091C772.877 267.49 772.952 264.104 772.952 264.104L764.134 261.695C763.573 261.336 762.859 261.321 762.266 261.658L738.464 272.388C738.464 272.388 738.392 275.763 738.383 276.375C738.375 276.98 738.66 277.59 739.245 277.956L747.122 282.765C747.683 283.143 748.397 283.157 748.972 282.821Z" fill="#66738C"/>
<path d="M749.052 278.834L772.028 265.685C773.233 264.995 773.267 263.274 772.091 262.536L764.214 257.709C763.653 257.349 762.939 257.335 762.346 257.671L739.388 270.82C738.184 271.511 738.149 273.232 739.325 273.97L747.203 278.779C747.763 279.156 748.477 279.171 749.052 278.834Z" fill="#8B99B3"/>
<path d="M732.298 281.735L742.882 275.964" stroke="#6B6B7F" stroke-width="1.09501" stroke-miterlimit="10"/>
<path d="M733.871 281.769C733.863 282.156 733.64 282.538 733.215 282.834C732.791 283.13 732.188 283.319 731.509 283.306C730.829 283.292 730.235 283.079 729.822 282.766C729.41 282.453 729.203 282.063 729.21 281.676C729.218 281.289 729.441 280.907 729.866 280.611C730.29 280.315 730.893 280.126 731.572 280.139C732.252 280.153 732.846 280.366 733.258 280.679C733.671 280.992 733.878 281.382 733.871 281.769Z" fill="white" stroke="#6B6B7F" stroke-width="0.821255"/>
<path d="M745.453 276.015C745.445 276.402 745.222 276.784 744.797 277.08C744.373 277.376 743.77 277.565 743.091 277.552C742.411 277.538 741.817 277.325 741.405 277.012C740.992 276.699 740.785 276.309 740.792 275.922C740.8 275.535 741.023 275.153 741.448 274.857C741.872 274.561 742.475 274.372 743.154 274.385C743.834 274.399 744.428 274.612 744.84 274.925C745.253 275.238 745.46 275.628 745.453 276.015Z" fill="white" stroke="#6B6B7F" stroke-width="0.821255"/>
<path d="M621.813 359.852L588.693 379.408L555.699 359.852L588.693 366.412L621.813 359.852Z" fill="#EA5EA1"/>
<path d="M591.715 374.612L555.699 359.85V346.729L591.715 361.49V374.612Z" fill="#EA5EA1"/>
<path d="M621.815 359.85L588.695 379.407V366.411L621.815 346.729V359.85Z" fill="#D3408D"/>
<path d="M621.813 346.728L588.693 366.411L555.699 346.728L588.693 327.172L621.813 346.728Z" fill="#F975BB"/>
<path d="M621.813 341.051L588.693 360.607L555.699 341.051L588.693 347.612L621.813 341.051Z" fill="#EA5EA1"/>
<path d="M591.715 355.813L555.699 341.051V327.93L591.715 342.692V355.813Z" fill="#EA5EA1"/>
<path d="M621.815 341.051L588.695 360.608V347.612L621.815 327.93V341.051Z" fill="#D3408D"/>
<path d="M621.813 327.929L588.693 347.612L555.699 327.929L588.693 308.373L621.813 327.929Z" fill="#F975BB"/>
<path d="M621.813 322.254L588.693 341.937L555.699 322.254L588.693 328.815L621.813 322.254Z" fill="#EA5EA1"/>
<path d="M591.715 337.015L555.699 322.253V309.131L591.715 323.893V337.015Z" fill="#EA5EA1"/>
<path d="M621.815 322.253L588.695 341.935V328.813L621.815 309.131V322.253Z" fill="#D3408D"/>
<path d="M621.813 309.131L588.693 328.813L555.699 309.131L588.693 289.574L621.813 309.131Z" fill="#F975BB"/>
<path d="M559.953 396.525L526.834 416.082L493.84 396.525L526.834 403.086L559.953 396.525Z" fill="#0B86B8"/>
<path d="M529.856 411.286L493.84 396.524V383.402L529.856 398.164V411.286Z" fill="#0B86B8"/>
<path d="M559.956 396.524L526.836 416.081V403.085L559.956 383.402V396.524Z" fill="#0B86B8"/>
<path d="M559.953 383.402L526.834 403.085L493.84 383.402L526.834 363.846L559.953 383.402Z" fill="#0A95CD"/>
<path d="M559.953 377.725L526.834 397.281L493.84 377.725L526.834 384.285L559.953 377.725Z" fill="#0B86B8"/>
<path d="M529.856 392.489L493.84 377.727V364.605L529.856 379.367V392.489Z" fill="#0B86B8"/>
<path d="M559.956 377.727L526.836 397.284V384.288L559.956 364.605V377.727Z" fill="#0B86B8"/>
<path d="M559.953 364.605L526.834 384.288L493.84 364.605L526.834 345.049L559.953 364.605Z" fill="#0A95CD"/>
<path d="M559.953 358.924L526.834 378.606L493.84 358.924L526.834 365.485L559.953 358.924Z" fill="#0B86B8"/>
<path d="M529.856 373.684L493.84 358.922V345.801L529.856 360.563V373.684Z" fill="#0B86B8"/>
<path d="M559.956 358.922L526.836 378.605V365.483L559.956 345.801V358.922Z" fill="#0B86B8"/>
<path d="M559.953 345.801L526.834 365.483L493.84 345.801L526.834 326.244L559.953 345.801Z" fill="#0A95CD"/>
<path d="M498.071 433.127L464.951 452.813L431.957 433.127L464.951 439.731L498.071 433.127Z" fill="#2CC6D1"/>
<path d="M467.973 447.988L431.957 433.129V419.92L467.973 434.78V447.988Z" fill="#2CC6D1"/>
<path d="M498.073 433.129L464.953 452.814V439.733L498.073 419.92V433.129Z" fill="#19B6BA"/>
<path d="M498.071 419.918L464.951 439.731L431.957 419.918L464.951 400.232L498.071 419.918Z" fill="#42D8DB"/>
<path d="M498.071 414.201L464.951 433.887L431.957 414.201L464.951 420.805L498.071 414.201Z" fill="#2CC6D1"/>
<path d="M467.973 429.064L431.957 414.205V400.996L467.973 415.856V429.064Z" fill="#2CC6D1"/>
<path d="M498.073 414.205L464.953 433.891V420.809L498.073 400.996V414.205Z" fill="#19B6BA"/>
<path d="M498.071 400.994L464.951 420.807L431.957 400.994L464.951 381.309L498.071 400.994Z" fill="#42D8DB"/>
<path d="M498.071 395.279L464.951 415.092L431.957 395.279L464.951 401.884L498.071 395.279Z" fill="#2CC6D1"/>
<path d="M467.973 410.141L431.957 395.281V382.072L467.973 396.932V410.141Z" fill="#2CC6D1"/>
<path d="M498.073 395.281L464.953 415.094V401.885L498.073 382.072V395.281Z" fill="#19B6BA"/>
<path d="M498.071 382.071L464.951 401.884L431.957 382.071L464.951 362.385L498.071 382.071Z" fill="#42D8DB"/>
<path d="M474.883 383.94C474.763 383.817 474.643 383.817 465.063 381.487L473.326 377.684C473.805 377.439 473.805 377.071 473.446 376.825C473.087 376.58 472.727 376.335 472.368 376.089C467.817 373.391 460.512 373.145 455.482 375.476C449.973 378.052 448.895 382.836 453.326 386.271C453.685 386.516 454.044 386.761 454.404 387.007C458.955 389.705 466.26 389.951 471.29 387.62C472.967 386.884 474.284 385.78 475.122 384.553C475.242 384.431 475.122 384.185 474.883 383.94ZM469.973 386.761C465.661 388.724 459.553 388.601 455.721 386.271C455.362 386.025 455.122 385.903 454.883 385.657C451.17 382.836 452.009 378.788 456.679 376.58C460.991 374.617 467.098 374.74 470.931 377.071C471.051 377.071 471.051 377.193 471.17 377.193L462.428 381.364C462.188 381.487 462.068 381.732 462.068 381.855C462.068 382.1 462.308 382.223 462.667 382.345C465.901 383.081 470.811 384.308 472.847 384.676C472.128 385.535 471.17 386.148 469.973 386.761Z" fill="white"/>
<path d="M479.922 383.572C481.359 381.487 480.76 379.034 478.485 377.194C478.245 377.071 477.886 377.071 477.646 377.194L469.622 380.874C469.503 380.996 469.383 381.119 469.383 381.242C469.383 381.364 469.503 381.364 469.503 381.487C469.503 381.487 469.622 381.487 469.742 381.61L479.083 383.94C479.203 383.94 479.443 383.94 479.563 383.94C479.682 383.695 479.802 383.572 479.922 383.572Z" fill="white"/>
<path d="M158.219 212.001V195.395H103.475V212.001C103.314 215.891 106.052 219.781 111.526 222.773C122.153 228.608 139.542 228.608 150.169 222.773C155.643 219.931 158.219 216.041 158.219 212.001Z" fill="#FF9248"/>
<path d="M150.171 184.31C160.798 190.699 160.798 201.185 150.171 207.574C139.544 213.964 122.155 213.964 111.529 207.574C100.902 201.185 100.902 190.699 111.529 184.31C122.155 177.92 139.544 177.92 150.171 184.31Z" fill="#EA7628"/>
<path d="M129.519 193.608C130.196 193.942 130.346 194.586 129.836 195.093C128.988 195.959 129.179 197.061 130.251 197.688L136.59 201.394C137.175 201.736 137.835 201.873 138.568 201.807C139.302 201.741 140.018 201.479 140.442 201.046C141.473 200.163 141.363 198.922 140.193 198.238L136.682 196.186C136.097 195.844 136.033 195.126 136.543 194.619C137.053 194.112 138.067 194.086 138.744 194.42L142.255 196.472C143.425 197.156 144.166 198.208 144.258 199.253C144.351 200.298 143.894 201.392 142.777 202.348C141.746 203.231 140.319 203.821 138.76 203.962C137.201 204.103 135.693 203.778 134.522 203.094L128.287 199.511C126.044 198.2 125.646 195.801 127.427 193.994C127.931 193.422 128.842 193.274 129.519 193.608ZM118.598 188.276C116.45 190.116 116.682 192.727 119.12 194.152L122.534 196.148C123.21 196.481 124.128 196.399 124.643 195.957C124.987 195.663 125.129 195.189 124.917 194.879C124.911 194.814 124.911 194.814 124.814 194.757C124.814 194.757 124.808 194.692 124.716 194.7C124.716 194.7 124.71 194.635 124.619 194.643C124.521 194.586 124.515 194.521 124.424 194.529L121.182 192.387C120.012 191.703 119.902 190.462 120.939 189.644C121.97 188.762 123.712 188.604 124.882 189.288L131.124 192.937C132.196 193.564 132.392 194.731 131.545 195.597C131.035 196.104 131.191 196.814 131.862 197.082C132.539 197.416 133.542 197.259 133.96 196.761C134.807 195.895 135.185 194.939 135.097 193.96C135.005 192.915 134.356 191.855 133.186 191.171L126.944 187.522C124.415 186.106 120.746 186.437 118.598 188.276V188.276Z" fill="white"/>
<path d="M321.445 514.334L299.197 526.398C298.05 527.049 298.16 528.148 299.513 528.909L319.706 540.083C321.148 540.842 323.202 540.96 324.437 540.229L346.218 527.073C347.276 526.424 346.987 525.328 345.636 524.646L325.818 514.487C324.467 513.805 322.503 513.685 321.445 514.334ZM307.98 523.871C308.51 523.625 309.402 523.608 309.943 523.912C310.573 524.215 310.582 524.687 310.142 525.009C309.612 525.256 308.72 525.273 308.179 524.968C307.549 524.666 307.451 524.196 307.98 523.871ZM304.978 525.501C305.508 525.255 306.402 525.317 307.032 525.619C307.573 525.924 307.671 526.394 307.14 526.64C306.61 526.886 305.718 526.903 305.177 526.598C304.547 526.296 304.538 525.824 304.978 525.501ZM301.976 527.131C302.507 526.885 303.398 526.868 303.939 527.173C304.57 527.475 304.58 528.025 304.05 528.271C303.521 528.596 302.627 528.535 302.086 528.23C301.545 527.926 301.447 527.456 301.976 527.131ZM343.96 525.622C344.14 525.697 344.234 525.931 344.057 526.013L322.185 539.092C322.008 539.174 321.652 539.181 321.472 539.106L305.514 530.21C305.334 530.134 305.24 529.9 305.506 529.816L327.57 517.442C327.747 517.36 328.014 517.355 328.194 517.43C328.195 517.508 343.96 525.622 343.96 525.622ZM337.693 524.405L330.813 528.468C330.461 528.711 329.835 528.644 329.385 528.417C328.934 528.19 328.838 527.798 329.191 527.634L336.071 523.571C336.425 523.407 337.049 523.395 337.5 523.622C337.95 523.849 338.047 524.241 337.693 524.405ZM340.936 526.073L334.056 530.136C333.704 530.379 333.078 530.312 332.628 530.085C332.177 529.858 332.081 529.466 332.434 529.302L339.314 525.239C339.668 525.075 340.292 525.063 340.743 525.29C341.193 525.518 341.2 525.911 340.936 526.073ZM331.756 531.124C331.935 531.199 332.029 531.433 331.852 531.515L321.974 537.366C321.797 537.448 321.44 537.455 321.26 537.38L308.641 530.464C308.461 530.389 308.367 530.155 308.544 530.073L318.516 524.456C318.693 524.374 318.96 524.369 319.229 524.443C319.14 524.444 331.756 531.124 331.756 531.124ZM334.798 522.258C334.977 522.333 335.071 522.567 334.894 522.65L327.307 527.041C327.13 527.123 326.863 527.128 326.594 527.055L320.466 523.79C320.286 523.715 320.192 523.481 320.369 523.399L327.958 519.086C328.135 519.004 328.402 518.999 328.582 519.074L334.798 522.258Z" fill="white"/>
<path d="M526.287 335.217L512.002 344.021C511.547 344.285 511.544 344.73 511.995 345L519.845 350.035L516.57 352.06C515.932 352.501 515.928 353.124 516.65 353.573L522.425 357.26C523.147 357.71 524.234 357.717 524.871 357.366L533.424 352.084C534.061 351.643 534.065 351.02 533.344 350.57L531.91 349.794L541.187 344.119C541.642 343.855 541.645 343.41 541.194 343.14L527.828 335.228C527.376 334.958 526.742 334.953 526.287 335.217ZM531.798 351.272L523.701 356.201L518.286 352.783L526.384 347.854L531.798 351.272ZM529.156 339.864L529.138 342.622L531.131 342.636C531.675 342.639 531.764 342.818 531.4 343.082L527.761 345.283L527.396 345.547C527.215 345.635 527.033 345.634 526.853 345.544L523.243 343.295L522.702 342.935C522.341 342.666 522.433 342.489 522.977 342.492L524.97 342.505L524.988 339.747C524.989 339.658 525.171 339.57 525.352 339.571L528.795 339.594C528.976 339.685 529.157 339.775 529.156 339.864Z" fill="white"/>
<path d="M576.605 304.421C577.127 304.121 578.098 304.121 578.695 304.496L585.416 308.627C586.013 309.003 586.013 309.528 585.49 309.904L579.218 313.659C578.695 313.96 577.725 313.96 577.127 313.584L570.407 309.453C569.81 309.078 569.81 308.552 570.332 308.176L576.605 304.421ZM593.405 302.543L592.285 303.219L591.016 302.393C589.448 301.417 586.909 301.342 585.416 302.243L581.234 304.721L582.728 305.623L586.909 303.144C587.656 302.694 588.85 302.769 589.597 303.219L590.867 304.045L589.747 304.721C589.523 304.872 589.597 304.947 589.896 305.022L590.792 305.172L594.376 305.623C594.6 305.623 594.749 305.548 594.675 305.397L594.077 303.52L593.853 302.694C593.779 302.468 593.629 302.468 593.405 302.543ZM599.006 304.421C599.528 304.121 600.499 304.121 601.096 304.496L607.817 308.627C608.414 309.003 608.414 309.528 607.891 309.904L601.619 313.659C601.096 313.96 600.126 313.96 599.528 313.584L592.808 309.453C592.211 309.078 592.211 308.552 592.733 308.176L599.006 304.421ZM591.315 314.861C590.568 315.312 589.373 315.237 588.626 314.786L587.357 313.96L588.477 313.284C588.701 313.134 588.626 313.058 588.328 312.983L587.432 312.833L583.848 312.382C583.624 312.382 583.474 312.458 583.549 312.608L584.146 314.486L584.445 315.387C584.52 315.537 584.744 315.612 584.893 315.462L586.013 314.786L587.282 315.612C588.85 316.589 591.389 316.664 592.883 315.762L597.064 313.284L595.571 312.382L591.315 314.861Z" fill="white"/>
</svg>
