<svg width="456" height="473" viewBox="0 0 456 473" fill="none" xmlns="http://www.w3.org/2000/svg">
<rect width="456" height="473" rx="16" fill="#212131"/>
<g clip-path="url(#clip0_805_10775)">
<path d="M241.341 220.182C241.341 222.417 239.507 224.411 237.117 224.411C235.283 224.411 233.69 224.89 232.338 225.926C230.825 226.884 229.63 228.238 228.673 229.756C226.762 232.309 225.805 235.341 225.407 236.457V251.613C225.407 253.925 223.415 255.841 221.025 255.841C218.636 255.841 216.802 253.928 216.802 251.613V220.182C216.802 217.87 218.713 216.034 221.025 216.034C223.338 216.034 225.407 217.87 225.407 220.182V220.742C225.885 220.182 226.521 219.546 227.08 219.147C229.71 217.391 233.135 215.957 237.12 216.034C239.51 216.034 241.344 217.87 241.344 220.182H241.341Z" fill="white"/>
<path d="M239.001 235.901C239.081 225.051 247.525 215.957 258.443 215.957C269.36 215.957 277.008 223.694 277.647 234.463V234.862C277.647 235.023 277.647 235.422 277.567 235.579C277.329 237.493 275.655 238.769 273.423 238.769H248.084C248.482 240.605 249.359 242.676 250.792 244.033C252.465 245.947 255.652 247.384 258.44 247.622C261.308 247.86 264.735 247.143 266.726 245.628C268.4 243.873 271.666 244.114 272.704 245.39C273.738 246.506 274.538 248.902 272.704 250.574C268.798 254.163 264.099 255.838 258.44 255.838C247.522 255.758 239.078 246.744 238.998 235.895L239.001 235.901ZM247.686 231.99H270.237C269.44 228.8 265.377 224.093 258.443 223.533C251.669 223.852 248.322 228.72 247.686 231.99Z" fill="white"/>
<path d="M318.241 251.535C318.241 253.847 316.33 255.844 313.937 255.844C311.785 255.844 310.112 254.329 309.714 252.412C306.685 254.487 302.863 255.844 298.877 255.844C288.12 255.844 279.515 246.75 279.515 235.98C279.515 225.211 288.12 215.956 298.877 215.956C302.782 215.956 306.605 217.233 309.553 219.307V204.309C309.553 201.997 311.464 200 313.934 200C316.404 200 318.238 201.994 318.238 204.309V251.535H318.241ZM298.88 224.651C296.011 224.651 293.381 225.848 291.389 227.922C289.398 229.916 288.203 232.787 288.203 235.98C288.203 239.173 289.398 241.884 291.389 243.878C293.381 245.952 296.011 247.148 298.88 247.148C301.748 247.148 304.379 245.952 306.37 243.878C308.361 241.884 309.556 239.013 309.556 235.98C309.556 232.79 308.361 229.919 306.37 227.922C304.379 225.848 301.828 224.651 298.88 224.651Z" fill="white"/>
<path d="M333.401 205.984C333.401 208.377 331.567 210.371 329.097 210.371C326.627 210.371 324.793 208.377 324.793 205.984V204.309C324.793 201.916 326.704 200 329.097 200C331.49 200 333.401 201.913 333.401 204.309V205.984ZM333.401 220.423V251.535C333.401 253.927 331.567 255.844 329.097 255.844C326.627 255.844 324.793 253.93 324.793 251.535V220.423C324.793 217.87 326.704 216.037 329.097 216.037C331.49 216.037 333.401 217.873 333.401 220.423Z" fill="white"/>
<path d="M338.878 244.435C340.314 242.522 343.102 242.281 344.856 243.798C346.927 245.554 350.512 247.387 353.621 247.31C355.773 247.31 357.765 246.593 359.04 245.795C360.154 244.837 360.472 244.04 360.472 243.403C360.472 243.004 360.392 242.843 360.235 242.605C360.154 242.367 359.836 242.046 359.197 241.647C358.083 240.85 355.69 239.972 352.821 239.412H352.741C350.271 238.933 347.881 238.296 345.81 237.338C343.658 236.303 341.747 234.865 340.311 232.711C339.434 231.273 338.956 229.521 338.956 227.685C338.956 224.015 341.027 220.903 343.658 218.909C346.446 216.996 349.793 215.957 353.458 215.957C358.956 215.957 362.859 218.591 365.409 220.343C367.32 221.62 367.879 224.254 366.684 226.247C365.409 228.161 362.779 228.72 360.787 227.363C358.237 225.688 356.008 224.411 353.458 224.411C351.466 224.411 349.712 225.048 348.678 225.848C347.644 226.566 347.403 227.286 347.403 227.685C347.403 228.003 347.403 228.083 347.563 228.321C347.644 228.482 347.881 228.8 348.44 229.119C349.478 229.836 351.549 230.556 354.257 231.032L354.337 231.113H354.418C357.048 231.592 359.518 232.309 361.828 233.425C363.98 234.383 366.132 235.898 367.484 238.132C368.441 239.727 368.997 241.564 368.997 243.397C368.997 247.304 366.845 250.574 363.977 252.651C361.108 254.645 357.524 255.841 353.618 255.841C347.403 255.761 342.623 252.889 339.434 250.339C337.68 248.902 337.443 246.191 338.875 244.435H338.878Z" fill="white"/>
<path d="M187.779 261.399C182.181 264.32 153.184 276.258 147.012 279.479C140.84 282.699 137.41 282.669 132.531 280.335C127.653 278.001 96.7966 265.522 91.2391 262.861C88.4604 261.532 87 260.413 87 259.353C87 258.292 87 248.738 87 248.738C87 248.738 127.171 239.984 133.658 237.653C140.142 235.322 142.393 235.239 147.913 237.264C153.434 239.288 186.433 245.248 191.889 247.248C191.889 247.248 191.889 256.728 191.889 257.714C191.889 258.762 190.629 259.915 187.782 261.402L187.779 261.399Z" fill="#A41E11"/>
<path d="M187.779 250.779C182.182 253.7 153.184 265.638 147.012 268.859C140.84 272.08 137.41 272.049 132.531 269.715C127.653 267.381 96.7967 254.902 91.2392 252.241C85.6817 249.583 85.5644 247.75 91.0262 245.611C96.4849 243.468 127.175 231.416 133.661 229.086C140.145 226.758 142.396 226.671 147.916 228.696C153.437 230.721 182.259 242.204 187.714 244.207C193.17 246.207 193.38 247.858 187.782 250.779H187.779Z" fill="#D82C20"/>
<path d="M187.779 244.09C182.181 247.011 153.184 258.949 147.012 262.17C140.84 265.391 137.41 265.36 132.531 263.026C127.653 260.692 96.7966 248.214 91.2391 245.552C88.4604 244.223 87 243.101 87 242.044C87 240.987 87 231.429 87 231.429C87 231.429 127.171 222.675 133.658 220.345C140.142 218.014 142.393 217.93 147.913 219.955C153.434 221.98 186.433 227.939 191.889 229.939C191.889 229.939 191.889 239.42 191.889 240.403C191.889 241.45 190.629 242.603 187.782 244.09H187.779Z" fill="#A41E11"/>
<path d="M187.779 233.471C182.182 236.392 153.184 248.33 147.012 251.551C140.84 254.772 137.41 254.741 132.531 252.407C127.653 250.074 96.7967 237.595 91.2392 234.933C85.6817 232.275 85.5644 230.442 91.0262 228.303C96.4849 226.164 127.175 214.109 133.661 211.778C140.145 209.447 142.396 209.364 147.916 211.389C153.437 213.413 182.259 224.9 187.714 226.9C193.17 228.9 193.38 230.55 187.782 233.471H187.779Z" fill="#D82C20"/>
<path d="M187.779 226.141C182.181 229.062 153.184 241 147.012 244.221C140.84 247.442 137.41 247.411 132.531 245.077C127.653 242.743 96.7966 230.265 91.2391 227.603C88.4604 226.274 87 225.155 87 224.095C87 223.034 87 213.48 87 213.48C87 213.48 127.171 204.726 133.658 202.395C140.142 200.065 142.393 199.981 147.913 202.006C153.434 204.03 186.433 209.99 191.889 211.99C191.889 211.99 191.889 221.47 191.889 222.453C191.889 223.501 190.629 224.654 187.782 226.141H187.779Z" fill="#A41E11"/>
<path d="M187.779 215.523C182.181 218.444 153.184 230.382 147.012 233.603C140.84 236.824 137.41 236.793 132.531 234.459C127.653 232.125 96.7966 219.646 91.2391 216.985C85.6816 214.327 85.5642 212.494 91.026 210.355C96.4847 208.216 127.174 196.16 133.661 193.833C140.145 191.502 142.396 191.419 147.916 193.443C153.437 195.468 182.259 206.954 187.714 208.954C193.17 210.954 193.38 212.605 187.782 215.526L187.779 215.523Z" fill="#D82C20"/>
<path d="M141.093 200.434L148.009 198.171L146.135 202.657L153.184 205.296L144.1 206.242L142.063 211.145L138.774 205.677L128.28 204.731L136.113 201.902L133.763 197.562L141.093 200.434Z" fill="white"/>
<path d="M141.522 229.079L124.556 222.035L148.861 218.301L141.522 229.079Z" fill="white"/>
<path d="M130.997 213.065C130.997 215.85 125.18 218.107 118.005 218.107C110.829 218.107 105.012 215.85 105.012 213.065C105.012 210.28 110.829 208.023 118.005 208.023C125.18 208.023 130.997 210.28 130.997 213.065Z" fill="white"/>
<path d="M163.931 206.637L178.313 212.334L163.937 218.015L163.931 206.637Z" fill="#7A0C00"/>
<path d="M163.931 206.637L163.937 218.015L162.381 218.63L148.015 212.943L163.931 206.637Z" fill="#AD2115"/>
</g>
<defs>
<clipPath id="clip0_805_10775">
<rect width="282" height="90" fill="white" transform="translate(87 192)"/>
</clipPath>
</defs>
</svg>
