<svg width="129" height="32" viewBox="0 0 129 32" fill="none" xmlns="http://www.w3.org/2000/svg">
<path d="M32.2384 13.5953C32.2384 14.3871 32.0598 15.114 31.7025 15.7761C31.3453 16.4251 30.7967 16.9509 30.0567 17.3533C29.3168 17.7557 28.3982 17.9569 27.301 17.9569H25.2725V22.8637H22V9.19471H27.301C28.3727 9.19471 29.2785 9.38294 30.0185 9.75939C30.7584 10.1358 31.3134 10.6551 31.6834 11.3171C32.0534 11.9791 32.2384 12.7385 32.2384 13.5953ZM27.0522 15.3088C27.6774 15.3088 28.143 15.1595 28.4492 14.8609C28.7554 14.5624 28.9085 14.1405 28.9085 13.5953C28.9085 13.0501 28.7554 12.6282 28.4492 12.3296C28.143 12.0311 27.6774 11.8818 27.0522 11.8818H25.2725V15.3088H27.0522Z" fill="#EDEDEF"/>
<path d="M40.4104 22.8637L37.6164 17.7038H36.8317V22.8637H33.5593V9.19471H39.0516C40.1106 9.19471 41.01 9.38294 41.75 9.75939C42.5027 10.1358 43.0641 10.6551 43.434 11.3171C43.804 11.9662 43.989 12.6931 43.989 13.4979C43.989 14.4066 43.7339 15.2179 43.2235 15.9318C42.726 16.6458 41.986 17.1521 41.0036 17.4506L44.1038 22.8637H40.4104ZM36.8317 15.3477H38.8603C39.4599 15.3477 39.9064 15.1984 40.1999 14.8999C40.5061 14.6013 40.6592 14.1794 40.6592 13.6342C40.6592 13.115 40.5061 12.7061 40.1999 12.4075C39.9064 12.1089 39.4599 11.9597 38.8603 11.9597H36.8317V15.3477Z" fill="#EDEDEF"/>
<path d="M48.933 9.19471V22.8637H45.6605V9.19471H48.933Z" fill="#EDEDEF"/>
<path d="M57.2753 23C56.0122 23 54.8512 22.7014 53.7923 22.1043C52.7462 21.5072 51.9105 20.6764 51.2854 19.612C50.673 18.5345 50.3668 17.3273 50.3668 15.9903C50.3668 14.6532 50.673 13.4525 51.2854 12.388C51.9105 11.3236 52.7462 10.4928 53.7923 9.89569C54.8512 9.29856 56.0122 9 57.2753 9C58.5383 9 59.6929 9.29856 60.7391 9.89569C61.798 10.4928 62.6273 11.3236 63.2269 12.388C63.8393 13.4525 64.1455 14.6532 64.1455 15.9903C64.1455 17.3273 63.8393 18.5345 63.2269 19.612C62.6145 20.6764 61.7853 21.5072 60.7391 22.1043C59.6929 22.7014 58.5383 23 57.2753 23ZM57.2753 19.9624C58.347 19.9624 59.2018 19.599 59.8397 18.872C60.4903 18.1451 60.8157 17.1845 60.8157 15.9903C60.8157 14.783 60.4903 13.8224 59.8397 13.1085C59.2018 12.3815 58.347 12.0181 57.2753 12.0181C56.1908 12.0181 55.3233 12.3751 54.6726 13.089C54.0347 13.803 53.7158 14.7701 53.7158 15.9903C53.7158 17.1975 54.0347 18.1646 54.6726 18.8915C55.3233 19.6055 56.1908 19.9624 57.2753 19.9624Z" fill="#EDEDEF"/>
<path d="M74.5013 13.5174C74.2588 13.063 73.908 12.7191 73.4487 12.4854C73.0022 12.2388 72.4727 12.1154 71.8603 12.1154C70.8014 12.1154 69.953 12.4724 69.3151 13.1864C68.6772 13.8873 68.3582 14.8285 68.3582 16.0097C68.3582 17.2689 68.6899 18.2554 69.3534 18.9694C70.0295 19.6704 70.9545 20.0209 72.1282 20.0209C72.932 20.0209 73.6082 19.8132 74.1568 19.3978C74.7181 18.9824 75.1264 18.3853 75.3816 17.6064H71.2288V15.153H78.3478V18.249C78.1054 19.0797 77.6908 19.8521 77.1039 20.5661C76.5298 21.28 75.7962 21.8577 74.9031 22.299C74.0101 22.7404 73.0022 22.9611 71.8795 22.9611C70.5526 22.9611 69.3661 22.669 68.32 22.0848C67.2865 21.4877 66.4764 20.6634 65.8895 19.612C65.3154 18.5605 65.0284 17.3598 65.0284 16.0097C65.0284 14.6597 65.3154 13.459 65.8895 12.4075C66.4764 11.3431 67.2865 10.5188 68.32 9.93463C69.3534 9.3375 70.5335 9.03894 71.8603 9.03894C73.4678 9.03894 74.8202 9.43486 75.9174 10.2267C77.0274 11.0185 77.7609 12.1154 78.1182 13.5174H74.5013Z" fill="#EDEDEF"/>
<path d="M83.0502 20.2935H87.3369V22.8637H79.7777V9.19471H83.0502V20.2935Z" fill="#EDEDEF"/>
<path d="M91.7875 9.19471V22.8637H88.515V9.19471H91.7875Z" fill="#EDEDEF"/>
<path d="M100.13 23C98.8667 23 97.7057 22.7014 96.6468 22.1043C95.6006 21.5072 94.765 20.6764 94.1398 19.612C93.5275 18.5345 93.2213 17.3273 93.2213 15.9903C93.2213 14.6532 93.5275 13.4525 94.1398 12.388C94.765 11.3236 95.6006 10.4928 96.6468 9.89569C97.7057 9.29856 98.8667 9 100.13 9C101.393 9 102.547 9.29856 103.594 9.89569C104.653 10.4928 105.482 11.3236 106.081 12.388C106.694 13.4525 107 14.6532 107 15.9903C107 17.3273 106.694 18.5345 106.081 19.612C105.469 20.6764 104.64 21.5072 103.594 22.1043C102.547 22.7014 101.393 23 100.13 23ZM100.13 19.9624C101.201 19.9624 102.056 19.599 102.694 18.872C103.345 18.1451 103.67 17.1845 103.67 15.9903C103.67 14.783 103.345 13.8224 102.694 13.1085C102.056 12.3815 101.201 12.0181 100.13 12.0181C99.0453 12.0181 98.1778 12.3751 97.5271 13.089C96.8892 13.803 96.5703 14.7701 96.5703 15.9903C96.5703 17.1975 96.8892 18.1646 97.5271 18.8915C98.1778 19.6055 99.0453 19.9624 100.13 19.9624Z" fill="#EDEDEF"/>
<rect x="0.75" y="0.75" width="127.5" height="30.5" rx="13.25" stroke="url(#paint0_linear_674_14362)" stroke-width="1.5"/>
<defs>
<linearGradient id="paint0_linear_674_14362" x1="-27.2885" y1="-13" x2="131.679" y2="72.1138" gradientUnits="userSpaceOnUse">
<stop stop-color="#93E5FF"/>
<stop offset="1" stop-color="#5024FF"/>
</linearGradient>
</defs>
</svg>
