<svg width="456" height="473" viewBox="0 0 456 473" fill="none" xmlns="http://www.w3.org/2000/svg">
<rect width="456" height="473" rx="16" fill="#212131"/>
<path d="M138.485 138.818V149H137.291L131.743 141.006H131.644V149H130.411V138.818H131.604L137.172 146.832H137.271V138.818H138.485ZM143.994 149.159C143.259 149.159 142.624 148.997 142.09 148.672C141.56 148.344 141.151 147.886 140.862 147.3C140.577 146.71 140.435 146.024 140.435 145.241C140.435 144.459 140.577 143.77 140.862 143.173C141.151 142.573 141.552 142.106 142.065 141.771C142.582 141.433 143.186 141.264 143.875 141.264C144.273 141.264 144.665 141.33 145.053 141.463C145.441 141.596 145.794 141.811 146.112 142.109C146.43 142.404 146.684 142.795 146.873 143.283C147.062 143.77 147.156 144.37 147.156 145.082V145.58H141.27V144.565H145.963C145.963 144.134 145.877 143.75 145.705 143.412C145.536 143.074 145.294 142.807 144.979 142.612C144.667 142.416 144.299 142.318 143.875 142.318C143.408 142.318 143.003 142.434 142.662 142.666C142.324 142.895 142.064 143.193 141.881 143.561C141.699 143.929 141.608 144.323 141.608 144.744V145.42C141.608 145.997 141.707 146.486 141.906 146.887C142.108 147.285 142.388 147.588 142.746 147.797C143.104 148.002 143.52 148.105 143.994 148.105C144.303 148.105 144.581 148.062 144.83 147.976C145.081 147.886 145.299 147.754 145.481 147.578C145.663 147.399 145.804 147.177 145.903 146.912L147.037 147.23C146.918 147.615 146.717 147.953 146.435 148.244C146.154 148.533 145.806 148.758 145.391 148.92C144.977 149.08 144.511 149.159 143.994 149.159ZM153.754 145.878V141.364H154.927V149H153.754V147.707H153.674C153.495 148.095 153.217 148.425 152.839 148.697C152.461 148.965 151.984 149.099 151.407 149.099C150.93 149.099 150.505 148.995 150.134 148.786C149.763 148.574 149.471 148.256 149.259 147.832C149.047 147.404 148.941 146.866 148.941 146.216V141.364H150.114V146.136C150.114 146.693 150.27 147.137 150.582 147.469C150.897 147.8 151.298 147.966 151.785 147.966C152.076 147.966 152.373 147.891 152.675 147.742C152.98 147.593 153.235 147.364 153.44 147.056C153.649 146.748 153.754 146.355 153.754 145.878ZM160.397 141.364V142.358H156.439V141.364H160.397ZM157.593 139.534H158.766V146.812C158.766 147.144 158.814 147.393 158.91 147.558C159.01 147.721 159.136 147.83 159.288 147.886C159.444 147.939 159.608 147.966 159.78 147.966C159.91 147.966 160.016 147.959 160.099 147.946C160.181 147.929 160.248 147.916 160.297 147.906L160.536 148.96C160.456 148.99 160.345 149.02 160.203 149.05C160.06 149.083 159.88 149.099 159.661 149.099C159.33 149.099 159.005 149.028 158.687 148.886C158.372 148.743 158.11 148.526 157.901 148.234C157.696 147.943 157.593 147.575 157.593 147.131V139.534ZM162.162 149V141.364H163.295V142.517H163.375C163.514 142.139 163.766 141.833 164.131 141.597C164.495 141.362 164.906 141.244 165.363 141.244C165.45 141.244 165.557 141.246 165.687 141.249C165.816 141.253 165.914 141.258 165.98 141.264V142.457C165.94 142.447 165.849 142.433 165.706 142.413C165.567 142.389 165.42 142.378 165.264 142.378C164.893 142.378 164.561 142.456 164.27 142.612C163.981 142.764 163.753 142.976 163.584 143.248C163.418 143.516 163.335 143.823 163.335 144.168V149H162.162ZM169.618 149.179C169.134 149.179 168.695 149.088 168.3 148.906C167.906 148.72 167.593 148.453 167.361 148.105C167.129 147.754 167.013 147.33 167.013 146.832C167.013 146.395 167.099 146.04 167.271 145.768C167.444 145.493 167.674 145.278 167.962 145.122C168.251 144.966 168.569 144.85 168.917 144.774C169.268 144.695 169.621 144.632 169.976 144.585C170.44 144.526 170.816 144.481 171.104 144.451C171.396 144.418 171.608 144.363 171.741 144.287C171.877 144.211 171.945 144.078 171.945 143.889V143.849C171.945 143.359 171.81 142.978 171.542 142.706C171.277 142.434 170.874 142.298 170.334 142.298C169.774 142.298 169.335 142.421 169.016 142.666C168.698 142.911 168.474 143.173 168.345 143.452L167.232 143.054C167.43 142.59 167.696 142.229 168.027 141.97C168.362 141.708 168.726 141.526 169.121 141.423C169.518 141.317 169.91 141.264 170.294 141.264C170.539 141.264 170.821 141.294 171.139 141.354C171.461 141.41 171.771 141.528 172.069 141.707C172.371 141.886 172.621 142.156 172.82 142.517C173.018 142.878 173.118 143.362 173.118 143.969V149H171.945V147.966H171.885C171.805 148.132 171.673 148.309 171.487 148.498C171.302 148.687 171.055 148.848 170.746 148.98C170.438 149.113 170.062 149.179 169.618 149.179ZM169.797 148.125C170.261 148.125 170.652 148.034 170.97 147.852C171.292 147.669 171.534 147.434 171.696 147.146C171.862 146.857 171.945 146.554 171.945 146.236V145.162C171.895 145.222 171.786 145.276 171.616 145.326C171.451 145.372 171.259 145.414 171.04 145.45C170.824 145.483 170.614 145.513 170.408 145.54C170.206 145.563 170.042 145.583 169.916 145.599C169.611 145.639 169.326 145.704 169.061 145.793C168.799 145.879 168.587 146.01 168.425 146.186C168.266 146.358 168.186 146.594 168.186 146.892C168.186 147.3 168.337 147.608 168.638 147.817C168.943 148.022 169.33 148.125 169.797 148.125ZM176.433 138.818V149H175.259V138.818H176.433ZM183.991 143.074L182.937 143.372C182.871 143.196 182.773 143.026 182.643 142.86C182.518 142.691 182.345 142.552 182.126 142.442C181.908 142.333 181.628 142.278 181.286 142.278C180.819 142.278 180.429 142.386 180.118 142.602C179.81 142.814 179.656 143.084 179.656 143.412C179.656 143.704 179.762 143.934 179.974 144.103C180.186 144.272 180.517 144.413 180.968 144.526L182.102 144.804C182.784 144.97 183.293 145.223 183.628 145.565C183.963 145.903 184.13 146.339 184.13 146.872C184.13 147.31 184.004 147.701 183.752 148.045C183.504 148.39 183.156 148.662 182.708 148.861C182.261 149.06 181.74 149.159 181.147 149.159C180.368 149.159 179.723 148.99 179.213 148.652C178.703 148.314 178.379 147.82 178.244 147.17L179.357 146.892C179.463 147.303 179.664 147.611 179.959 147.817C180.257 148.022 180.647 148.125 181.127 148.125C181.674 148.125 182.108 148.009 182.43 147.777C182.754 147.542 182.917 147.26 182.917 146.932C182.917 146.667 182.824 146.445 182.638 146.266C182.453 146.083 182.168 145.947 181.783 145.858L180.511 145.56C179.811 145.394 179.298 145.137 178.969 144.789C178.645 144.438 178.482 143.999 178.482 143.472C178.482 143.041 178.603 142.66 178.845 142.328C179.09 141.997 179.424 141.737 179.844 141.548C180.269 141.359 180.749 141.264 181.286 141.264C182.042 141.264 182.635 141.43 183.066 141.761C183.5 142.093 183.808 142.53 183.991 143.074Z" fill="white"/>
<path d="M239.378 149V138.818H242.819C243.618 138.818 244.271 138.962 244.778 139.251C245.288 139.536 245.666 139.922 245.911 140.409C246.156 140.896 246.279 141.44 246.279 142.04C246.279 142.64 246.156 143.185 245.911 143.675C245.669 144.166 245.295 144.557 244.788 144.849C244.28 145.137 243.631 145.281 242.839 145.281H240.373V144.188H242.799C243.346 144.188 243.785 144.093 244.116 143.904C244.448 143.715 244.688 143.46 244.837 143.138C244.99 142.814 245.066 142.447 245.066 142.04C245.066 141.632 244.99 141.268 244.837 140.946C244.688 140.625 244.446 140.373 244.111 140.19C243.777 140.005 243.333 139.912 242.779 139.912H240.611V149H239.378ZM248.106 149V141.364H249.24V142.517H249.319C249.458 142.139 249.71 141.833 250.075 141.597C250.439 141.362 250.85 141.244 251.308 141.244C251.394 141.244 251.502 141.246 251.631 141.249C251.76 141.253 251.858 141.258 251.924 141.264V142.457C251.884 142.447 251.793 142.433 251.651 142.413C251.512 142.389 251.364 142.378 251.208 142.378C250.837 142.378 250.506 142.456 250.214 142.612C249.926 142.764 249.697 142.976 249.528 143.248C249.362 143.516 249.279 143.823 249.279 144.168V149H248.106ZM253.315 149V141.364H254.488V149H253.315ZM253.912 140.091C253.683 140.091 253.486 140.013 253.32 139.857C253.158 139.701 253.076 139.514 253.076 139.295C253.076 139.077 253.158 138.889 253.32 138.734C253.486 138.578 253.683 138.5 253.912 138.5C254.14 138.5 254.336 138.578 254.498 138.734C254.664 138.889 254.747 139.077 254.747 139.295C254.747 139.514 254.664 139.701 254.498 139.857C254.336 140.013 254.14 140.091 253.912 140.091ZM256.637 149V141.364H257.771V142.557H257.87C258.029 142.149 258.286 141.833 258.641 141.607C258.996 141.379 259.421 141.264 259.919 141.264C260.422 141.264 260.842 141.379 261.176 141.607C261.514 141.833 261.778 142.149 261.967 142.557H262.046C262.242 142.162 262.535 141.849 262.926 141.617C263.318 141.382 263.786 141.264 264.333 141.264C265.016 141.264 265.575 141.478 266.009 141.906C266.443 142.33 266.66 142.991 266.66 143.889V149H265.487V143.889C265.487 143.326 265.333 142.923 265.024 142.681C264.716 142.439 264.353 142.318 263.936 142.318C263.399 142.318 262.983 142.481 262.688 142.805C262.393 143.127 262.245 143.535 262.245 144.028V149H261.052V143.77C261.052 143.336 260.911 142.986 260.63 142.721C260.348 142.452 259.985 142.318 259.541 142.318C259.236 142.318 258.951 142.399 258.686 142.562C258.424 142.724 258.212 142.95 258.049 143.238C257.89 143.523 257.811 143.853 257.811 144.227V149H256.637ZM271.052 149.179C270.569 149.179 270.129 149.088 269.735 148.906C269.341 148.72 269.027 148.453 268.795 148.105C268.563 147.754 268.447 147.33 268.447 146.832C268.447 146.395 268.534 146.04 268.706 145.768C268.878 145.493 269.109 145.278 269.397 145.122C269.685 144.966 270.003 144.85 270.351 144.774C270.703 144.695 271.056 144.632 271.41 144.585C271.874 144.526 272.251 144.481 272.539 144.451C272.831 144.418 273.043 144.363 273.175 144.287C273.311 144.211 273.379 144.078 273.379 143.889V143.849C273.379 143.359 273.245 142.978 272.976 142.706C272.711 142.434 272.309 142.298 271.768 142.298C271.208 142.298 270.769 142.421 270.451 142.666C270.133 142.911 269.909 143.173 269.78 143.452L268.666 143.054C268.865 142.59 269.13 142.229 269.462 141.97C269.796 141.708 270.161 141.526 270.555 141.423C270.953 141.317 271.344 141.264 271.729 141.264C271.974 141.264 272.256 141.294 272.574 141.354C272.895 141.41 273.205 141.528 273.503 141.707C273.805 141.886 274.055 142.156 274.254 142.517C274.453 142.878 274.552 143.362 274.552 143.969V149H273.379V147.966H273.32C273.24 148.132 273.107 148.309 272.922 148.498C272.736 148.687 272.489 148.848 272.181 148.98C271.873 149.113 271.497 149.179 271.052 149.179ZM271.231 148.125C271.695 148.125 272.087 148.034 272.405 147.852C272.726 147.669 272.968 147.434 273.131 147.146C273.296 146.857 273.379 146.554 273.379 146.236V145.162C273.329 145.222 273.22 145.276 273.051 145.326C272.885 145.372 272.693 145.414 272.474 145.45C272.259 145.483 272.048 145.513 271.843 145.54C271.641 145.563 271.477 145.583 271.351 145.599C271.046 145.639 270.761 145.704 270.496 145.793C270.234 145.879 270.022 146.01 269.859 146.186C269.7 146.358 269.621 146.594 269.621 146.892C269.621 147.3 269.771 147.608 270.073 147.817C270.378 148.022 270.764 148.125 271.231 148.125ZM276.694 149V141.364H277.828V142.517H277.907C278.046 142.139 278.298 141.833 278.663 141.597C279.027 141.362 279.438 141.244 279.896 141.244C279.982 141.244 280.09 141.246 280.219 141.249C280.348 141.253 280.446 141.258 280.512 141.264V142.457C280.472 142.447 280.381 142.433 280.239 142.413C280.1 142.389 279.952 142.378 279.796 142.378C279.425 142.378 279.094 142.456 278.802 142.612C278.514 142.764 278.285 142.976 278.116 143.248C277.95 143.516 277.867 143.823 277.867 144.168V149H276.694ZM282.891 151.864C282.692 151.864 282.515 151.847 282.359 151.814C282.203 151.784 282.096 151.754 282.036 151.724L282.334 150.69C282.619 150.763 282.871 150.79 283.09 150.77C283.309 150.75 283.503 150.652 283.672 150.477C283.844 150.304 284.001 150.024 284.144 149.636L284.363 149.04L281.539 141.364H282.812L284.919 147.449H284.999L287.107 141.364H288.38L285.138 150.114C284.992 150.508 284.812 150.835 284.596 151.093C284.381 151.355 284.131 151.549 283.846 151.675C283.564 151.801 283.246 151.864 282.891 151.864Z" fill="white"/>
<path opacity="0.5" d="M245.178 359.364C245.118 358.86 244.876 358.469 244.452 358.19C244.028 357.912 243.508 357.773 242.891 357.773C242.44 357.773 242.046 357.846 241.708 357.991C241.373 358.137 241.111 358.338 240.922 358.593C240.737 358.848 240.644 359.138 240.644 359.463C240.644 359.735 240.709 359.969 240.838 360.164C240.97 360.356 241.14 360.517 241.345 360.646C241.55 360.772 241.766 360.877 241.991 360.96C242.217 361.039 242.424 361.104 242.613 361.153L243.647 361.432C243.912 361.501 244.207 361.598 244.532 361.72C244.86 361.843 245.173 362.01 245.471 362.222C245.773 362.431 246.022 362.7 246.217 363.028C246.413 363.356 246.51 363.759 246.51 364.236C246.51 364.786 246.366 365.283 246.078 365.727C245.793 366.171 245.375 366.524 244.825 366.786C244.278 367.048 243.614 367.179 242.831 367.179C242.102 367.179 241.471 367.061 240.937 366.826C240.407 366.591 239.989 366.263 239.684 365.842C239.383 365.421 239.212 364.932 239.172 364.375H240.445C240.478 364.759 240.608 365.078 240.833 365.33C241.062 365.578 241.35 365.764 241.698 365.886C242.049 366.006 242.427 366.065 242.831 366.065C243.302 366.065 243.725 365.989 244.099 365.837C244.474 365.681 244.77 365.465 244.989 365.19C245.208 364.912 245.317 364.587 245.317 364.216C245.317 363.878 245.223 363.603 245.034 363.391C244.845 363.179 244.596 363.006 244.288 362.874C243.98 362.741 243.647 362.625 243.289 362.526L242.036 362.168C241.241 361.939 240.611 361.612 240.147 361.188C239.683 360.764 239.451 360.209 239.451 359.523C239.451 358.953 239.605 358.455 239.913 358.031C240.225 357.604 240.642 357.272 241.166 357.037C241.693 356.798 242.281 356.679 242.931 356.679C243.587 356.679 244.171 356.797 244.681 357.032C245.191 357.264 245.596 357.582 245.894 357.987C246.196 358.391 246.355 358.85 246.371 359.364H245.178ZM249.552 362.406V367H248.379V356.818H249.552V360.557H249.651C249.83 360.162 250.099 359.849 250.457 359.617C250.818 359.382 251.299 359.264 251.898 359.264C252.419 359.264 252.875 359.369 253.266 359.577C253.657 359.783 253.96 360.099 254.175 360.527C254.394 360.951 254.504 361.491 254.504 362.148V367H253.33V362.227C253.33 361.621 253.173 361.152 252.858 360.82C252.546 360.486 252.114 360.318 251.56 360.318C251.176 360.318 250.831 360.399 250.526 360.562C250.225 360.724 249.986 360.961 249.81 361.273C249.638 361.584 249.552 361.962 249.552 362.406ZM258.897 367.179C258.413 367.179 257.974 367.088 257.58 366.906C257.185 366.72 256.872 366.453 256.64 366.105C256.408 365.754 256.292 365.33 256.292 364.832C256.292 364.395 256.378 364.04 256.551 363.768C256.723 363.493 256.953 363.278 257.242 363.122C257.53 362.966 257.848 362.85 258.196 362.774C258.548 362.695 258.901 362.632 259.255 362.585C259.719 362.526 260.095 362.481 260.384 362.451C260.675 362.418 260.887 362.363 261.02 362.287C261.156 362.211 261.224 362.078 261.224 361.889V361.849C261.224 361.359 261.09 360.978 260.821 360.706C260.556 360.434 260.153 360.298 259.613 360.298C259.053 360.298 258.614 360.421 258.296 360.666C257.977 360.911 257.754 361.173 257.624 361.452L256.511 361.054C256.71 360.59 256.975 360.229 257.306 359.97C257.641 359.708 258.006 359.526 258.4 359.423C258.798 359.317 259.189 359.264 259.573 359.264C259.819 359.264 260.1 359.294 260.419 359.354C260.74 359.41 261.05 359.528 261.348 359.707C261.65 359.886 261.9 360.156 262.099 360.517C262.298 360.878 262.397 361.362 262.397 361.969V367H261.224V365.966H261.164C261.085 366.132 260.952 366.309 260.767 366.498C260.581 366.687 260.334 366.848 260.026 366.98C259.718 367.113 259.341 367.179 258.897 367.179ZM259.076 366.125C259.54 366.125 259.931 366.034 260.249 365.852C260.571 365.669 260.813 365.434 260.975 365.146C261.141 364.857 261.224 364.554 261.224 364.236V363.162C261.174 363.222 261.065 363.276 260.896 363.326C260.73 363.372 260.538 363.414 260.319 363.45C260.104 363.483 259.893 363.513 259.688 363.54C259.485 363.563 259.321 363.583 259.195 363.599C258.891 363.639 258.606 363.704 258.34 363.793C258.079 363.879 257.866 364.01 257.704 364.186C257.545 364.358 257.465 364.594 257.465 364.892C257.465 365.3 257.616 365.608 257.918 365.817C258.223 366.022 258.609 366.125 259.076 366.125ZM267.422 367.159C266.786 367.159 266.224 366.998 265.737 366.677C265.25 366.352 264.868 365.895 264.593 365.305C264.318 364.711 264.181 364.01 264.181 363.202C264.181 362.4 264.318 361.704 264.593 361.114C264.868 360.524 265.251 360.068 265.742 359.746C266.232 359.425 266.799 359.264 267.442 359.264C267.939 359.264 268.332 359.347 268.62 359.513C268.912 359.675 269.134 359.861 269.287 360.07C269.442 360.275 269.563 360.444 269.65 360.577H269.749V356.818H270.922V367H269.789V365.827H269.65C269.563 365.966 269.441 366.142 269.282 366.354C269.123 366.562 268.895 366.75 268.6 366.915C268.306 367.078 267.913 367.159 267.422 367.159ZM267.581 366.105C268.052 366.105 268.45 365.982 268.775 365.737C269.099 365.489 269.346 365.146 269.515 364.708C269.684 364.267 269.769 363.759 269.769 363.182C269.769 362.612 269.686 362.113 269.52 361.685C269.355 361.254 269.109 360.92 268.784 360.681C268.46 360.439 268.059 360.318 267.581 360.318C267.084 360.318 266.67 360.446 266.338 360.701C266.01 360.953 265.763 361.296 265.598 361.73C265.435 362.161 265.354 362.645 265.354 363.182C265.354 363.725 265.437 364.219 265.603 364.663C265.772 365.104 266.02 365.455 266.348 365.717C266.68 365.976 267.091 366.105 267.581 366.105ZM276.436 367.159C275.7 367.159 275.065 366.997 274.532 366.672C274.001 366.344 273.592 365.886 273.304 365.3C273.019 364.71 272.876 364.024 272.876 363.241C272.876 362.459 273.019 361.77 273.304 361.173C273.592 360.573 273.993 360.106 274.507 359.771C275.024 359.433 275.627 359.264 276.316 359.264C276.714 359.264 277.107 359.33 277.495 359.463C277.882 359.596 278.235 359.811 278.554 360.109C278.872 360.404 279.125 360.795 279.314 361.283C279.503 361.77 279.598 362.37 279.598 363.082V363.58H273.711V362.565H278.404C278.404 362.134 278.318 361.75 278.146 361.412C277.977 361.074 277.735 360.807 277.42 360.612C277.109 360.416 276.741 360.318 276.316 360.318C275.849 360.318 275.445 360.434 275.103 360.666C274.765 360.895 274.505 361.193 274.323 361.561C274.141 361.929 274.049 362.323 274.049 362.744V363.42C274.049 363.997 274.149 364.486 274.348 364.887C274.55 365.285 274.83 365.588 275.188 365.797C275.546 366.002 275.962 366.105 276.436 366.105C276.744 366.105 277.022 366.062 277.271 365.976C277.523 365.886 277.74 365.754 277.922 365.578C278.105 365.399 278.245 365.177 278.345 364.912L279.478 365.23C279.359 365.615 279.158 365.953 278.877 366.244C278.595 366.533 278.247 366.758 277.833 366.92C277.418 367.08 276.953 367.159 276.436 367.159ZM286.792 361.074L285.738 361.372C285.671 361.196 285.574 361.026 285.444 360.86C285.318 360.691 285.146 360.552 284.927 360.442C284.708 360.333 284.428 360.278 284.087 360.278C283.62 360.278 283.23 360.386 282.919 360.602C282.61 360.814 282.456 361.084 282.456 361.412C282.456 361.704 282.562 361.934 282.775 362.103C282.987 362.272 283.318 362.413 283.769 362.526L284.902 362.804C285.585 362.97 286.094 363.223 286.429 363.565C286.763 363.903 286.931 364.339 286.931 364.872C286.931 365.31 286.805 365.701 286.553 366.045C286.304 366.39 285.956 366.662 285.509 366.861C285.061 367.06 284.541 367.159 283.948 367.159C283.169 367.159 282.524 366.99 282.014 366.652C281.503 366.314 281.18 365.82 281.044 365.17L282.158 364.892C282.264 365.303 282.465 365.611 282.76 365.817C283.058 366.022 283.447 366.125 283.928 366.125C284.475 366.125 284.909 366.009 285.23 365.777C285.555 365.542 285.718 365.26 285.718 364.932C285.718 364.667 285.625 364.445 285.439 364.266C285.254 364.083 284.969 363.947 284.584 363.858L283.311 363.56C282.612 363.394 282.098 363.137 281.77 362.789C281.445 362.438 281.283 361.999 281.283 361.472C281.283 361.041 281.404 360.66 281.646 360.328C281.891 359.997 282.224 359.737 282.645 359.548C283.069 359.359 283.55 359.264 284.087 359.264C284.843 359.264 285.436 359.43 285.867 359.761C286.301 360.093 286.609 360.53 286.792 361.074Z" fill="white"/>
<path d="M313.888 149H312.595L316.334 138.818H317.607L321.345 149H320.053L317.01 140.429H316.93L313.888 149ZM314.365 145.023H319.575V146.116H314.365V145.023ZM325.874 149.159C325.158 149.159 324.542 148.99 324.025 148.652C323.508 148.314 323.11 147.848 322.832 147.255C322.553 146.662 322.414 145.984 322.414 145.222C322.414 144.446 322.557 143.762 322.842 143.168C323.13 142.572 323.531 142.106 324.045 141.771C324.562 141.433 325.165 141.264 325.854 141.264C326.391 141.264 326.875 141.364 327.306 141.562C327.737 141.761 328.09 142.04 328.365 142.398C328.64 142.756 328.811 143.173 328.877 143.651H327.704C327.614 143.303 327.416 142.994 327.107 142.726C326.802 142.454 326.391 142.318 325.874 142.318C325.417 142.318 325.016 142.437 324.671 142.676C324.33 142.911 324.063 143.245 323.871 143.675C323.682 144.103 323.587 144.605 323.587 145.182C323.587 145.772 323.68 146.286 323.866 146.723C324.055 147.161 324.32 147.5 324.661 147.742C325.006 147.984 325.41 148.105 325.874 148.105C326.179 148.105 326.456 148.052 326.705 147.946C326.953 147.84 327.164 147.688 327.336 147.489C327.508 147.29 327.631 147.051 327.704 146.773H328.877C328.811 147.223 328.647 147.629 328.385 147.991C328.127 148.349 327.783 148.634 327.356 148.846C326.932 149.055 326.438 149.159 325.874 149.159ZM333.695 149.159C332.979 149.159 332.362 148.99 331.845 148.652C331.328 148.314 330.93 147.848 330.652 147.255C330.374 146.662 330.234 145.984 330.234 145.222C330.234 144.446 330.377 143.762 330.662 143.168C330.95 142.572 331.351 142.106 331.865 141.771C332.382 141.433 332.985 141.264 333.675 141.264C334.212 141.264 334.696 141.364 335.127 141.562C335.557 141.761 335.91 142.04 336.185 142.398C336.461 142.756 336.631 143.173 336.698 143.651H335.524C335.435 143.303 335.236 142.994 334.928 142.726C334.623 142.454 334.212 142.318 333.695 142.318C333.237 142.318 332.836 142.437 332.492 142.676C332.15 142.911 331.883 143.245 331.691 143.675C331.502 144.103 331.408 144.605 331.408 145.182C331.408 145.772 331.501 146.286 331.686 146.723C331.875 147.161 332.14 147.5 332.482 147.742C332.826 147.984 333.231 148.105 333.695 148.105C334 148.105 334.276 148.052 334.525 147.946C334.774 147.84 334.984 147.688 335.156 147.489C335.329 147.29 335.451 147.051 335.524 146.773H336.698C336.631 147.223 336.467 147.629 336.205 147.991C335.947 148.349 335.604 148.634 335.176 148.846C334.752 149.055 334.258 149.159 333.695 149.159ZM341.614 149.159C340.879 149.159 340.244 148.997 339.71 148.672C339.18 148.344 338.771 147.886 338.482 147.3C338.197 146.71 338.055 146.024 338.055 145.241C338.055 144.459 338.197 143.77 338.482 143.173C338.771 142.573 339.172 142.106 339.685 141.771C340.203 141.433 340.806 141.264 341.495 141.264C341.893 141.264 342.286 141.33 342.673 141.463C343.061 141.596 343.414 141.811 343.732 142.109C344.051 142.404 344.304 142.795 344.493 143.283C344.682 143.77 344.776 144.37 344.776 145.082V145.58H338.89V144.565H343.583C343.583 144.134 343.497 143.75 343.325 143.412C343.156 143.074 342.914 142.807 342.599 142.612C342.287 142.416 341.919 142.318 341.495 142.318C341.028 142.318 340.623 142.434 340.282 142.666C339.944 142.895 339.684 143.193 339.502 143.561C339.319 143.929 339.228 144.323 339.228 144.744V145.42C339.228 145.997 339.328 146.486 339.526 146.887C339.729 147.285 340.009 147.588 340.367 147.797C340.725 148.002 341.14 148.105 341.614 148.105C341.923 148.105 342.201 148.062 342.45 147.976C342.702 147.886 342.919 147.754 343.101 147.578C343.283 147.399 343.424 147.177 343.524 146.912L344.657 147.23C344.538 147.615 344.337 147.953 344.055 148.244C343.774 148.533 343.426 148.758 343.011 148.92C342.597 149.08 342.131 149.159 341.614 149.159ZM347.734 144.406V149H346.561V141.364H347.695V142.557H347.794C347.973 142.169 348.245 141.857 348.609 141.622C348.974 141.384 349.445 141.264 350.021 141.264C350.538 141.264 350.991 141.37 351.379 141.582C351.766 141.791 352.068 142.109 352.283 142.537C352.499 142.961 352.607 143.498 352.607 144.148V149H351.433V144.227C351.433 143.627 351.278 143.16 350.966 142.825C350.654 142.487 350.227 142.318 349.683 142.318C349.309 142.318 348.974 142.399 348.679 142.562C348.387 142.724 348.157 142.961 347.988 143.273C347.819 143.584 347.734 143.962 347.734 144.406ZM358.072 141.364V142.358H354.114V141.364H358.072ZM355.268 139.534H356.441V146.812C356.441 147.144 356.489 147.393 356.585 147.558C356.685 147.721 356.811 147.83 356.963 147.886C357.119 147.939 357.283 147.966 357.455 147.966C357.584 147.966 357.69 147.959 357.773 147.946C357.856 147.929 357.922 147.916 357.972 147.906L358.211 148.96C358.131 148.99 358.02 149.02 357.878 149.05C357.735 149.083 357.555 149.099 357.336 149.099C357.004 149.099 356.68 149.028 356.361 148.886C356.047 148.743 355.785 148.526 355.576 148.234C355.37 147.943 355.268 147.575 355.268 147.131V139.534Z" fill="white"/>
<path d="M330 209.887C333.094 208.1 336.906 208.1 340 209.887L355.981 219.113C359.075 220.9 360.981 224.201 360.981 227.774V246.226C360.981 249.799 359.075 253.1 355.981 254.887L340 264.113C336.906 265.9 333.094 265.9 330 264.113L314.019 254.887C310.925 253.1 309.019 249.799 309.019 246.226V227.774C309.019 224.201 310.925 220.9 314.019 219.113L330 209.887Z" fill="#5961FF"/>
<path opacity="0.3" d="M187.437 209.973C190.563 208.137 194.437 208.137 197.563 209.973L213.111 219.101C216.169 220.897 218.048 224.178 218.048 227.725V246.275C218.048 249.822 216.169 253.103 213.111 254.899L197.563 264.027C194.437 265.863 190.563 265.863 187.437 264.027L171.889 254.899C168.831 253.103 166.952 249.822 166.952 246.275V227.725C166.952 224.178 168.831 220.897 171.889 219.101L187.437 209.973Z" fill="#161F31" stroke="#8395B7" stroke-width="2"/>
<path d="M116 209.887C119.094 208.1 122.906 208.1 126 209.887L141.981 219.113C145.075 220.9 146.981 224.201 146.981 227.774V246.226C146.981 249.799 145.075 253.1 141.981 254.887L126 264.113C122.906 265.9 119.094 265.9 116 264.113L100.019 254.887C96.9252 253.1 95.0192 249.799 95.0192 246.226V227.774C95.0192 224.201 96.9252 220.9 100.019 219.113L116 209.887Z" fill="white"/>
<path d="M258.437 209.973C261.563 208.137 265.437 208.137 268.563 209.973L284.111 219.101C287.169 220.897 289.048 224.178 289.048 227.725V246.275C289.048 249.822 287.169 253.103 284.111 254.899L268.563 264.027C265.437 265.863 261.563 265.863 258.437 264.027L242.889 254.899C239.831 253.103 237.952 249.822 237.952 246.275V227.725C237.952 224.178 239.831 220.897 242.889 219.101L258.437 209.973Z" fill="#D82C20"/>
<path d="M236.42 307.419C238.935 305.928 242.065 305.928 244.58 307.419L252.602 312.176C255.032 313.617 256.521 316.232 256.521 319.057V328.943C256.521 331.768 255.032 334.383 252.602 335.824L244.58 340.581C242.065 342.072 238.935 342.072 236.42 340.581L228.398 335.824C225.968 334.383 224.479 331.768 224.479 328.943V319.057C224.479 316.232 225.968 313.617 228.398 312.176L236.42 307.419Z" fill="#A41E11"/>
<path d="M282.42 307.419C284.935 305.928 288.065 305.928 290.58 307.419L298.602 312.176C301.032 313.617 302.521 316.232 302.521 319.057V328.943C302.521 331.768 301.032 334.383 298.602 335.824L290.58 340.581C288.065 342.072 284.935 342.072 282.42 340.581L274.398 335.824C271.968 334.383 270.479 331.768 270.479 328.943V319.057C270.479 316.232 271.968 313.617 274.398 312.176L282.42 307.419Z" fill="#7A0C00"/>
<path d="M335 159L335 198" stroke="#4F5C77" stroke-dasharray="4 4"/>
<path d="M157 198L157 159" stroke="#4F5C77" stroke-dasharray="4 4"/>
<path d="M121 198L193 198" stroke="#4F5C77" stroke-dasharray="4 4"/>
<path d="M263 296L263 272" stroke="#4F5C77" stroke-dasharray="4 4"/>
<path d="M241 296L287 296" stroke="#4F5C77" stroke-dasharray="4 4"/>
<path d="M264 198L264 159" stroke="#4F5C77" stroke-dasharray="4 4"/>
</svg>
