<svg width="456" height="473" viewBox="0 0 456 473" fill="none" xmlns="http://www.w3.org/2000/svg">
<g clip-path="url(#clip0_805_10810)">
<rect width="456" height="473" rx="16" fill="#D82C20"/>
<path d="M282.268 250C283.038 248.667 284.962 248.667 285.732 250L329.033 325C329.803 326.333 328.841 328 327.301 328H240.699C239.159 328 238.197 326.333 238.967 325L282.268 250Z" fill="white"/>
<path d="M168.596 123.915C169.191 122.066 171.808 122.065 172.404 123.915L181.84 153.235C182.107 154.062 182.876 154.622 183.744 154.622H214.322C216.255 154.622 217.063 157.092 215.505 158.235L190.734 176.403C190.04 176.912 189.75 177.809 190.014 178.628L199.467 208.001C200.061 209.847 197.944 211.374 196.381 210.227L171.683 192.112C170.979 191.595 170.021 191.595 169.317 192.112L144.619 210.227C143.056 211.374 140.939 209.847 141.533 208.001L150.986 178.628C151.25 177.809 150.96 176.912 150.266 176.403L125.495 158.235C123.937 157.092 124.745 154.622 126.678 154.622H157.256C158.124 154.622 158.893 154.062 159.16 153.235L168.596 123.915Z" fill="white"/>
<ellipse cx="170.5" cy="289" rx="41.5" ry="42" fill="white"/>
<rect x="245" y="131" width="79" height="79" rx="2" fill="white"/>
</g>
<defs>
<clipPath id="clip0_805_10810">
<rect width="456" height="473" rx="16" fill="white"/>
</clipPath>
</defs>
</svg>
