<svg width="478" height="384" viewBox="0 0 478 384" fill="none" xmlns="http://www.w3.org/2000/svg">
<path d="M421.297 290.714C399.84 301.922 288.689 347.729 265.031 360.088C241.374 372.447 228.225 372.328 209.526 363.373C190.828 354.418 72.5515 306.536 51.249 296.324C40.5978 291.224 35 286.93 35 282.862C35 278.794 35 242.132 35 242.132C35 242.132 188.981 208.542 213.846 199.599C238.699 190.656 247.326 190.336 268.487 198.105C289.647 205.873 416.137 228.741 437.049 236.415C437.049 236.415 437.049 272.792 437.049 276.576C437.049 280.597 432.22 285.021 421.308 290.726L421.297 290.714Z" fill="#A41E11"/>
<path d="M421.277 250.094C399.822 261.292 288.677 307.058 265.02 319.406C241.364 331.754 228.217 331.636 209.519 322.689C190.821 313.742 72.5515 265.902 51.2502 255.699C29.9489 245.508 29.4992 238.48 50.4337 230.28C71.3563 222.068 188.987 175.864 213.85 166.928C238.702 158.005 247.329 157.673 268.488 165.435C289.647 173.197 400.118 217.221 421.029 224.9C441.939 232.567 442.744 238.895 421.289 250.094H421.277Z" fill="#D82C20"/>
<path d="M421.297 224.566C399.84 235.74 288.689 281.409 265.031 293.73C241.374 306.052 228.225 305.934 209.526 297.006C190.828 288.078 72.5515 240.34 51.249 230.159C40.5978 225.074 35 220.782 35 216.738C35 212.694 35 176.131 35 176.131C35 176.131 188.981 142.642 213.846 133.726C238.699 124.81 247.326 124.491 268.487 132.236C289.647 139.982 416.137 162.78 437.049 170.431C437.049 170.431 437.049 206.698 437.049 210.459C437.049 214.467 432.22 218.878 421.308 224.566H421.297Z" fill="#A41E11"/>
<path d="M421.277 183.717C399.822 194.915 288.677 240.68 265.02 253.027C241.364 265.375 228.217 265.257 209.519 256.31C190.821 247.363 72.5515 199.525 51.2502 189.322C29.9489 179.131 29.4992 172.104 50.4337 163.904C71.3563 155.703 188.987 109.488 213.85 100.554C238.702 91.6187 247.329 91.2988 268.488 99.0605C289.647 106.822 400.118 150.857 421.029 158.524C441.939 166.191 442.744 172.519 421.289 183.717H421.277Z" fill="#D82C20"/>
<path d="M421.297 155.507C399.84 166.682 288.689 212.35 265.031 224.672C241.374 236.993 228.225 236.875 209.526 227.947C190.828 219.019 72.5515 171.282 51.249 161.1C40.5978 156.016 35 151.735 35 147.679C35 143.623 35 107.072 35 107.072C35 107.072 188.981 73.5837 213.846 64.6677C238.699 55.7516 247.326 55.4324 268.487 63.1777C289.647 70.9231 416.137 93.7217 437.049 101.372C437.049 101.372 437.049 137.64 437.049 141.4C437.049 145.409 432.22 149.819 421.308 155.507H421.297Z" fill="#A41E11"/>
<path d="M428.5 113C406.471 123.323 288.677 172.151 265.02 184.499C241.364 196.848 228.217 196.729 209.519 187.782C190.821 178.835 72.5515 130.993 51.2502 120.789C29.9489 110.598 29.4992 103.57 50.4337 95.3694C71.3563 87.1686 188.987 40.9504 213.85 32.0267C238.702 23.0912 247.329 22.7713 268.488 30.5335C289.647 38.2958 403.089 83.8325 424 91.5C440 98 441.971 107.323 428.5 113Z" fill="#D82C20"/>
<path d="M242.493 57.3931L268.956 48.7422L261.785 65.8904L288.757 75.9831L253.999 79.5995L246.202 98.3431L233.62 77.4368L193.464 73.8204L223.436 63.0068L214.446 46.4141L242.493 57.3931Z" fill="white"/>
<path d="M244.033 166.867L179.009 139.925L272.161 125.645L244.033 166.867Z" fill="white"/>
<path d="M203.636 105.839C203.636 116.486 181.345 125.112 153.848 125.112C126.351 125.112 104.06 116.486 104.06 105.839C104.06 95.1924 126.351 86.5664 153.848 86.5664C181.345 86.5664 203.636 95.1924 203.636 105.839Z" fill="white"/>
<path d="M329.979 81.2109L385.12 102.922L330.002 124.574L329.979 81.2109Z" fill="#7A0C00"/>
<path d="M329.955 81.2109L329.978 124.382L324.014 126.716L268.948 105.136L329.955 81.2109Z" fill="#AD2115"/>
<line x1="1.09596" y1="100.769" x2="256.096" y2="206.769" stroke="#FFA6A6" stroke-width="0.5"/>
<circle cx="46" cy="108" r="10.75" stroke="#FFA6A6" stroke-width="0.5"/>
<circle cx="46" cy="108" r="10.75" stroke="#FFA6A6" stroke-width="0.5"/>
<circle cx="233.5" cy="152.5" r="41.25" stroke="#FFA6A6" stroke-width="0.5"/>
<circle cx="233.5" cy="328.5" r="41.25" stroke="#FFA6A6" stroke-width="0.5"/>
<circle cx="233.5" cy="261.5" r="41.25" stroke="#FFA6A6" stroke-width="0.5"/>
<circle cx="233.5" cy="287.5" r="41.25" stroke="#FFA6A6" stroke-width="0.5"/>
<circle cx="233.5" cy="221.5" r="41.25" stroke="#FFA6A6" stroke-width="0.5"/>
<circle cx="233.5" cy="192.5" r="41.25" stroke="#FFA6A6" stroke-width="0.5"/>
<circle cx="429" cy="104" r="8.75" stroke="#FFA6A6" stroke-width="0.5"/>
<circle cx="44" cy="173" r="9.75" stroke="#FFA6A6" stroke-width="0.5"/>
<circle cx="428" cy="168" r="9.75" stroke="#FFA6A6" stroke-width="0.5"/>
<circle cx="44" cy="241" r="9.75" stroke="#FFA6A6" stroke-width="0.5"/>
<circle cx="428" cy="241" r="9.75" stroke="#FFA6A6" stroke-width="0.5"/>
<line x1="33.0948" y1="79.7687" x2="299.095" y2="188.769" stroke="#FFA6A6" stroke-width="0.5"/>
<line x1="97.096" y1="56.7692" x2="352.096" y2="162.769" stroke="#FFA6A6" stroke-width="0.5"/>
<line x1="124.095" y1="45.7688" x2="379.095" y2="150.769" stroke="#FFA6A6" stroke-width="0.5"/>
<line x1="178.095" y1="17.7689" x2="437.095" y2="124.769" stroke="#FFA6A6" stroke-width="0.5"/>
<line x1="1.09596" y1="276.769" x2="256.096" y2="382.769" stroke="#FFA6A6" stroke-width="0.5"/>
<line x1="1.09596" y1="235.769" x2="256.096" y2="341.769" stroke="#FFA6A6" stroke-width="0.5"/>
<line x1="1.09596" y1="209.769" x2="256.096" y2="315.769" stroke="#FFA6A6" stroke-width="0.5"/>
<line x1="1.09596" y1="168.769" x2="256.096" y2="274.769" stroke="#FFA6A6" stroke-width="0.5"/>
<line x1="1.09596" y1="140.769" x2="256.096" y2="246.769" stroke="#FFA6A6" stroke-width="0.5"/>
<line x1="210.098" y1="0.77008" x2="477.098" y2="114.77" stroke="#FFA6A6" stroke-width="0.5"/>
<line x1="477.101" y1="91.2288" x2="216.101" y2="206.229" stroke="#FFA6A6" stroke-width="0.5"/>
<line x1="443.101" y1="75.2288" x2="182.101" y2="190.229" stroke="#FFA6A6" stroke-width="0.5"/>
<line x1="393.101" y1="51.2288" x2="132.101" y2="166.229" stroke="#FFA6A6" stroke-width="0.5"/>
<line x1="369.101" y1="40.2288" x2="108.101" y2="155.229" stroke="#FFA6A6" stroke-width="0.5"/>
<line x1="307.101" y1="11.2288" x2="46.1008" y2="126.229" stroke="#FFA6A6" stroke-width="0.5"/>
<line x1="261.101" y1="1.22878" x2="0.100805" y2="116.229" stroke="#FFA6A6" stroke-width="0.5"/>
<line x1="477.1" y1="267.229" x2="212.1" y2="383.229" stroke="#FFA6A6" stroke-width="0.5"/>
<line x1="477.101" y1="226.229" x2="216.101" y2="341.229" stroke="#FFA6A6" stroke-width="0.5"/>
<line x1="477.101" y1="200.229" x2="216.101" y2="315.229" stroke="#FFA6A6" stroke-width="0.5"/>
<line x1="477.101" y1="159.229" x2="216.101" y2="274.229" stroke="#FFA6A6" stroke-width="0.5"/>
<line x1="477.101" y1="131.229" x2="216.101" y2="246.229" stroke="#FFA6A6" stroke-width="0.5"/>
<line x1="34.25" y1="46" x2="34.25" y2="348" stroke="#FFA6A6" stroke-width="0.5"/>
<line x1="437.25" y1="46" x2="437.25" y2="348" stroke="#FFA6A6" stroke-width="0.5"/>
</svg>
