<svg width="456" height="473" viewBox="0 0 456 473" fill="none" xmlns="http://www.w3.org/2000/svg">
<rect width="456" height="473" rx="16" fill="#212131"/>
<line x1="118.5" y1="416" x2="118.5" y2="58" stroke="#343449"/>
<line x1="154.5" y1="416" x2="154.5" y2="58" stroke="#343449"/>
<line x1="191.5" y1="416" x2="191.5" y2="58" stroke="#343449"/>
<line x1="227.5" y1="416" x2="227.5" y2="58" stroke="#343449"/>
<line x1="408" y1="130.5" x2="48" y2="130.5" stroke="#343449"/>
<line x1="408" y1="94.5" x2="48" y2="94.5" stroke="#343449"/>
<line x1="408" y1="166.5" x2="48" y2="166.5" stroke="#343449"/>
<line x1="408" y1="202.5" x2="48" y2="202.5" stroke="#343449"/>
<line x1="408" y1="238.5" x2="48" y2="238.5" stroke="#343449"/>
<line x1="408" y1="274.5" x2="48" y2="274.5" stroke="#343449"/>
<line x1="408" y1="310.5" x2="48" y2="310.5" stroke="#343449"/>
<line x1="408" y1="346.5" x2="48" y2="346.5" stroke="#343449"/>
<line x1="408" y1="382.5" x2="48" y2="382.5" stroke="#343449"/>
<line x1="263.5" y1="416" x2="263.5" y2="58" stroke="#343449"/>
<line x1="299.5" y1="416" x2="299.5" y2="58" stroke="#343449"/>
<line x1="335.5" y1="416" x2="335.5" y2="58" stroke="#343449"/>
<line x1="371.5" y1="416" x2="371.5" y2="58" stroke="#343449"/>
<line x1="83.5" y1="416" x2="83.5" y2="58" stroke="#343449"/>
<path d="M154.667 223.679C154.667 226.849 152.001 229.678 148.528 229.678C145.862 229.678 143.547 230.357 141.581 231.827C139.382 233.186 137.646 235.107 136.254 237.26C133.477 240.882 132.086 245.185 131.507 246.768V268.269C131.507 271.55 128.612 274.269 125.139 274.269C121.666 274.269 119 271.554 119 268.269V223.679C119 220.398 121.778 217.793 125.139 217.793C128.5 217.793 131.507 220.398 131.507 223.679V224.472C132.202 223.679 133.127 222.775 133.939 222.209C137.762 219.718 142.739 217.684 148.532 217.793C152.006 217.793 154.671 220.398 154.671 223.679H154.667Z" fill="white"/>
<path d="M150.712 246.033C150.827 230.668 162.951 217.789 178.625 217.789C194.299 217.789 205.279 228.746 206.196 243.998V244.562C206.196 244.79 206.196 245.355 206.081 245.578C205.74 248.288 203.337 250.096 200.132 250.096H163.753C164.325 252.696 165.584 255.629 167.641 257.551C170.043 260.26 174.618 262.296 178.621 262.633C182.738 262.97 187.659 261.954 190.518 259.809C192.92 257.323 197.61 257.664 199.1 259.472C200.585 261.053 201.733 264.445 199.1 266.814C193.492 271.896 186.746 274.269 178.621 274.269C162.946 274.155 150.823 261.39 150.708 246.024L150.712 246.033ZM163.181 240.496H195.558C194.414 235.978 188.581 229.311 178.625 228.518C168.9 228.969 164.095 235.864 163.181 240.496Z" fill="white"/>
<path d="M263.667 268.153C263.667 271.435 260.928 274.269 257.5 274.269C254.416 274.269 252.019 272.119 251.448 269.399C247.108 272.343 241.631 274.269 235.92 274.269C220.507 274.269 208.178 261.361 208.178 246.074C208.178 230.787 220.507 217.65 235.92 217.65C241.516 217.65 246.993 219.462 251.218 222.406V201.117C251.218 197.834 253.956 195 257.495 195C261.034 195 263.662 197.83 263.662 201.117V268.153H263.667ZM235.924 229.992C231.815 229.992 228.046 231.691 225.192 234.635C222.339 237.465 220.627 241.541 220.627 246.074C220.627 250.606 222.339 254.454 225.192 257.284C228.046 260.229 231.815 261.927 235.924 261.927C240.034 261.927 243.803 260.229 246.657 257.284C249.51 254.454 251.222 250.378 251.222 246.074C251.222 241.545 249.51 237.469 246.657 234.635C243.803 231.691 240.149 229.992 235.924 229.992Z" fill="white"/>
<path d="M284.475 203.495C284.475 206.891 281.942 209.721 278.53 209.721C275.118 209.721 272.584 206.891 272.584 203.495V201.117C272.584 197.72 275.224 195 278.53 195C281.835 195 284.475 197.716 284.475 201.117V203.495ZM284.475 223.99V268.153C284.475 271.549 281.942 274.269 278.53 274.269C275.118 274.269 272.584 271.553 272.584 268.153V223.99C272.584 220.366 275.224 217.764 278.53 217.764C281.835 217.764 284.475 220.37 284.475 223.99Z" fill="white"/>
<path d="M292.756 258.117C294.818 255.407 298.821 255.066 301.339 257.215C304.313 259.701 309.46 262.297 313.924 262.187C317.014 262.187 319.873 261.172 321.704 260.043C323.304 258.686 323.761 257.556 323.761 256.655C323.761 256.09 323.645 255.862 323.419 255.525C323.304 255.188 322.847 254.733 321.93 254.168C320.329 253.039 316.894 251.796 312.776 251.004H312.66C309.114 250.325 305.683 249.423 302.708 248.066C299.619 246.6 296.875 244.565 294.813 241.514C293.554 239.478 292.867 236.996 292.867 234.396C292.867 229.201 295.842 224.793 299.619 221.969C303.622 219.26 308.427 217.789 313.689 217.789C321.584 217.789 327.187 221.518 330.849 224C333.593 225.808 334.395 229.538 332.68 232.361C330.849 235.07 327.072 235.863 324.213 233.941C320.551 231.569 317.351 229.761 313.689 229.761C310.83 229.761 308.312 230.663 306.827 231.796C305.342 232.812 304.996 233.832 304.996 234.396C304.996 234.847 304.996 234.961 305.226 235.298C305.342 235.526 305.683 235.976 306.485 236.427C307.975 237.443 310.949 238.463 314.837 239.137L314.952 239.251H315.068C318.844 239.929 322.391 240.945 325.707 242.525C328.796 243.882 331.886 246.027 333.828 249.191C335.202 251.45 336 254.05 336 256.646C336 262.179 332.91 266.81 328.792 269.751C324.674 272.575 319.527 274.269 313.919 274.269C304.996 274.155 298.134 270.088 293.554 266.477C291.036 264.442 290.695 260.603 292.752 258.117H292.756Z" fill="white"/>
<path d="M134.169 144.364L135.998 147.486L137.828 144.364H139.18L136.714 148.182L139.18 152H137.828L135.998 149.037L134.169 152H132.816L135.242 148.182L132.816 144.364H134.169Z" fill="#A3A4B9"/>
<path d="M168.809 144.909C168.753 144.441 168.528 144.078 168.134 143.82C167.741 143.561 167.257 143.432 166.685 143.432C166.266 143.432 165.9 143.5 165.586 143.635C165.275 143.77 165.032 143.957 164.857 144.194C164.684 144.431 164.598 144.7 164.598 145.001C164.598 145.254 164.658 145.471 164.778 145.652C164.901 145.831 165.058 145.98 165.249 146.1C165.44 146.217 165.64 146.314 165.849 146.391C166.059 146.465 166.251 146.525 166.426 146.571L167.387 146.83C167.633 146.894 167.907 146.983 168.208 147.097C168.513 147.211 168.804 147.367 169.081 147.564C169.361 147.757 169.592 148.007 169.773 148.311C169.955 148.616 170.046 148.99 170.046 149.433C170.046 149.944 169.912 150.406 169.644 150.818C169.379 151.231 168.992 151.558 168.481 151.801C167.973 152.045 167.356 152.166 166.63 152.166C165.952 152.166 165.366 152.057 164.871 151.838C164.378 151.62 163.99 151.315 163.707 150.924C163.427 150.533 163.269 150.08 163.232 149.562H164.414C164.444 149.92 164.564 150.215 164.774 150.449C164.986 150.68 165.254 150.852 165.577 150.966C165.903 151.077 166.254 151.132 166.63 151.132C167.067 151.132 167.459 151.061 167.807 150.92C168.155 150.775 168.43 150.575 168.633 150.32C168.836 150.061 168.938 149.759 168.938 149.415C168.938 149.101 168.85 148.845 168.675 148.648C168.499 148.451 168.268 148.291 167.982 148.168C167.696 148.045 167.387 147.937 167.054 147.845L165.891 147.513C165.152 147.3 164.568 146.997 164.137 146.603C163.706 146.209 163.49 145.694 163.49 145.057C163.49 144.527 163.633 144.066 163.92 143.672C164.209 143.275 164.597 142.967 165.083 142.749C165.572 142.527 166.119 142.416 166.722 142.416C167.331 142.416 167.873 142.525 168.347 142.744C168.821 142.959 169.196 143.255 169.473 143.63C169.753 144.006 169.901 144.432 169.916 144.909H168.809ZM173.867 152.166C173.418 152.166 173.01 152.082 172.644 151.912C172.277 151.74 171.987 151.492 171.771 151.169C171.556 150.843 171.448 150.449 171.448 149.987C171.448 149.581 171.528 149.252 171.688 148.999C171.848 148.744 172.062 148.544 172.33 148.399C172.597 148.254 172.893 148.147 173.216 148.076C173.542 148.002 173.87 147.944 174.199 147.901C174.63 147.845 174.98 147.804 175.247 147.776C175.518 147.745 175.715 147.694 175.838 147.624C175.964 147.553 176.028 147.43 176.028 147.254V147.217C176.028 146.762 175.903 146.408 175.654 146.156C175.407 145.903 175.033 145.777 174.532 145.777C174.012 145.777 173.604 145.891 173.308 146.119C173.013 146.346 172.805 146.589 172.685 146.848L171.651 146.479C171.836 146.048 172.082 145.712 172.39 145.472C172.701 145.229 173.039 145.06 173.405 144.964C173.775 144.866 174.138 144.817 174.495 144.817C174.723 144.817 174.984 144.844 175.28 144.9C175.578 144.952 175.866 145.061 176.143 145.228C176.423 145.394 176.655 145.645 176.84 145.98C177.025 146.316 177.117 146.765 177.117 147.328V152H176.028V151.04H175.972C175.898 151.194 175.775 151.358 175.603 151.534C175.43 151.709 175.201 151.858 174.915 151.982C174.629 152.105 174.279 152.166 173.867 152.166ZM174.033 151.188C174.464 151.188 174.827 151.103 175.123 150.934C175.421 150.764 175.646 150.546 175.797 150.278C175.951 150.01 176.028 149.729 176.028 149.433V148.436C175.981 148.491 175.88 148.542 175.723 148.588C175.569 148.632 175.39 148.67 175.187 148.704C174.987 148.735 174.792 148.762 174.601 148.787C174.413 148.808 174.261 148.827 174.144 148.842C173.861 148.879 173.596 148.939 173.35 149.022C173.107 149.102 172.91 149.224 172.759 149.387C172.611 149.547 172.537 149.766 172.537 150.043C172.537 150.421 172.677 150.707 172.958 150.901C173.241 151.092 173.599 151.188 174.033 151.188ZM182.263 144.909V145.832H178.441V144.909H182.263ZM179.586 152V143.93C179.586 143.524 179.681 143.186 179.872 142.915C180.063 142.644 180.31 142.441 180.615 142.305C180.92 142.17 181.241 142.102 181.58 142.102C181.848 142.102 182.066 142.124 182.236 142.167C182.405 142.21 182.531 142.25 182.614 142.287L182.3 143.229C182.245 143.21 182.168 143.187 182.069 143.159C181.974 143.132 181.848 143.118 181.691 143.118C181.331 143.118 181.071 143.209 180.911 143.39C180.754 143.572 180.675 143.838 180.675 144.189V152H179.586ZM186.471 152.148C185.788 152.148 185.199 151.997 184.703 151.695C184.211 151.391 183.831 150.966 183.563 150.421C183.298 149.873 183.166 149.236 183.166 148.51C183.166 147.784 183.298 147.143 183.563 146.589C183.831 146.032 184.203 145.598 184.68 145.288C185.16 144.974 185.72 144.817 186.36 144.817C186.73 144.817 187.094 144.878 187.454 145.001C187.815 145.125 188.142 145.325 188.438 145.602C188.733 145.875 188.969 146.239 189.144 146.691C189.32 147.143 189.407 147.701 189.407 148.362V148.824H183.941V147.882H188.299C188.299 147.482 188.219 147.125 188.059 146.811C187.902 146.497 187.678 146.249 187.385 146.068C187.096 145.886 186.754 145.795 186.36 145.795C185.926 145.795 185.551 145.903 185.234 146.119C184.92 146.331 184.678 146.608 184.509 146.95C184.34 147.291 184.255 147.657 184.255 148.048V148.676C184.255 149.212 184.348 149.666 184.532 150.038C184.72 150.407 184.98 150.689 185.312 150.883C185.645 151.074 186.031 151.169 186.471 151.169C186.757 151.169 187.016 151.129 187.247 151.049C187.481 150.966 187.682 150.843 187.851 150.68C188.021 150.513 188.152 150.307 188.244 150.061L189.296 150.357C189.186 150.714 188.999 151.027 188.738 151.298C188.476 151.566 188.153 151.775 187.768 151.926C187.384 152.074 186.951 152.148 186.471 152.148ZM196.807 152.166C196.358 152.166 195.95 152.082 195.584 151.912C195.218 151.74 194.927 151.492 194.712 151.169C194.496 150.843 194.388 150.449 194.388 149.987C194.388 149.581 194.468 149.252 194.628 148.999C194.789 148.744 195.002 148.544 195.27 148.399C195.538 148.254 195.833 148.147 196.157 148.076C196.483 148.002 196.811 147.944 197.14 147.901C197.571 147.845 197.92 147.804 198.188 147.776C198.459 147.745 198.656 147.694 198.779 147.624C198.905 147.553 198.968 147.43 198.968 147.254V147.217C198.968 146.762 198.843 146.408 198.594 146.156C198.348 145.903 197.974 145.777 197.472 145.777C196.952 145.777 196.544 145.891 196.249 146.119C195.953 146.346 195.746 146.589 195.626 146.848L194.592 146.479C194.776 146.048 195.022 145.712 195.33 145.472C195.641 145.229 195.98 145.06 196.346 144.964C196.715 144.866 197.078 144.817 197.435 144.817C197.663 144.817 197.925 144.844 198.22 144.9C198.519 144.952 198.806 145.061 199.083 145.228C199.363 145.394 199.596 145.645 199.78 145.98C199.965 146.316 200.057 146.765 200.057 147.328V152H198.968V151.04H198.913C198.839 151.194 198.716 151.358 198.543 151.534C198.371 151.709 198.142 151.858 197.855 151.982C197.569 152.105 197.22 152.166 196.807 152.166ZM196.974 151.188C197.405 151.188 197.768 151.103 198.063 150.934C198.362 150.764 198.586 150.546 198.737 150.278C198.891 150.01 198.968 149.729 198.968 149.433V148.436C198.922 148.491 198.82 148.542 198.663 148.588C198.509 148.632 198.331 148.67 198.128 148.704C197.928 148.735 197.732 148.762 197.541 148.787C197.354 148.808 197.201 148.827 197.084 148.842C196.801 148.879 196.537 148.939 196.29 149.022C196.047 149.102 195.85 149.224 195.699 149.387C195.552 149.547 195.478 149.766 195.478 150.043C195.478 150.421 195.618 150.707 195.898 150.901C196.181 151.092 196.54 151.188 196.974 151.188ZM202.046 152V144.909H203.099V145.98H203.172C203.302 145.629 203.536 145.345 203.874 145.126C204.213 144.908 204.594 144.798 205.019 144.798C205.099 144.798 205.199 144.8 205.319 144.803C205.439 144.806 205.53 144.811 205.591 144.817V145.925C205.555 145.915 205.47 145.902 205.338 145.883C205.208 145.862 205.071 145.851 204.927 145.851C204.582 145.851 204.274 145.923 204.003 146.068C203.736 146.209 203.523 146.406 203.366 146.659C203.212 146.908 203.135 147.193 203.135 147.513V152H202.046ZM209.64 152.148C208.957 152.148 208.367 151.997 207.872 151.695C207.38 151.391 206.999 150.966 206.732 150.421C206.467 149.873 206.335 149.236 206.335 148.51C206.335 147.784 206.467 147.143 206.732 146.589C206.999 146.032 207.372 145.598 207.849 145.288C208.329 144.974 208.889 144.817 209.529 144.817C209.899 144.817 210.263 144.878 210.623 145.001C210.983 145.125 211.311 145.325 211.607 145.602C211.902 145.875 212.138 146.239 212.313 146.691C212.488 147.143 212.576 147.701 212.576 148.362V148.824H207.11V147.882H211.468C211.468 147.482 211.388 147.125 211.228 146.811C211.071 146.497 210.847 146.249 210.554 146.068C210.265 145.886 209.923 145.795 209.529 145.795C209.095 145.795 208.72 145.903 208.403 146.119C208.089 146.331 207.847 146.608 207.678 146.95C207.509 147.291 207.424 147.657 207.424 148.048V148.676C207.424 149.212 207.517 149.666 207.701 150.038C207.889 150.407 208.149 150.689 208.481 150.883C208.814 151.074 209.2 151.169 209.64 151.169C209.926 151.169 210.185 151.129 210.416 151.049C210.65 150.966 210.851 150.843 211.02 150.68C211.19 150.513 211.32 150.307 211.413 150.061L212.465 150.357C212.355 150.714 212.168 151.027 211.907 151.298C211.645 151.566 211.322 151.775 210.937 151.926C210.553 152.074 210.12 152.148 209.64 152.148ZM216.32 152.166C215.871 152.166 215.463 152.082 215.097 151.912C214.731 151.74 214.44 151.492 214.224 151.169C214.009 150.843 213.901 150.449 213.901 149.987C213.901 149.581 213.981 149.252 214.141 148.999C214.301 148.744 214.515 148.544 214.783 148.399C215.051 148.254 215.346 148.147 215.669 148.076C215.995 148.002 216.323 147.944 216.653 147.901C217.083 147.845 217.433 147.804 217.7 147.776C217.971 147.745 218.168 147.694 218.291 147.624C218.418 147.553 218.481 147.43 218.481 147.254V147.217C218.481 146.762 218.356 146.408 218.107 146.156C217.86 145.903 217.487 145.777 216.985 145.777C216.465 145.777 216.057 145.891 215.762 146.119C215.466 146.346 215.258 146.589 215.138 146.848L214.104 146.479C214.289 146.048 214.535 145.712 214.843 145.472C215.154 145.229 215.492 145.06 215.858 144.964C216.228 144.866 216.591 144.817 216.948 144.817C217.176 144.817 217.437 144.844 217.733 144.9C218.031 144.952 218.319 145.061 218.596 145.228C218.876 145.394 219.108 145.645 219.293 145.98C219.478 146.316 219.57 146.765 219.57 147.328V152H218.481V151.04H218.425C218.351 151.194 218.228 151.358 218.056 151.534C217.884 151.709 217.654 151.858 217.368 151.982C217.082 152.105 216.733 152.166 216.32 152.166ZM216.486 151.188C216.917 151.188 217.28 151.103 217.576 150.934C217.874 150.764 218.099 150.546 218.25 150.278C218.404 150.01 218.481 149.729 218.481 149.433V148.436C218.434 148.491 218.333 148.542 218.176 148.588C218.022 148.632 217.844 148.67 217.64 148.704C217.44 148.735 217.245 148.762 217.054 148.787C216.866 148.808 216.714 148.827 216.597 148.842C216.314 148.879 216.049 148.939 215.803 149.022C215.56 149.102 215.363 149.224 215.212 149.387C215.064 149.547 214.991 149.766 214.991 150.043C214.991 150.421 215.131 150.707 215.411 150.901C215.694 151.092 216.052 151.188 216.486 151.188ZM225.658 146.405V145.408H231.346V146.405H225.658ZM225.658 149.138V148.141H231.346V149.138H225.658ZM240.746 142.545V152H239.601V143.746H239.546L237.237 145.278V144.115L239.601 142.545H240.746ZM244.296 144.909L245.995 147.808L247.694 144.909H248.949L246.66 148.455L248.949 152H247.694L245.995 149.249L244.296 152H243.04L245.293 148.455L243.04 144.909H244.296Z" fill="#A3A4B9"/>
<line x1="118.5" y1="224" x2="118.5" y2="130" stroke="#7BD7FF"/>
<line x1="154.5" y1="224" x2="154.5" y2="130" stroke="#7BD7FF"/>
<rect x="83" y="166" width="35" height="37" fill="#5961FF" fill-opacity="0.2"/>
<rect x="83" y="166" width="288" height="37" fill="#5961FF" fill-opacity="0.2"/>
<rect x="83" y="275" width="288" height="35" fill="#5961FF" fill-opacity="0.2"/>
<rect x="336" y="166" width="36" height="144" fill="#5961FF" fill-opacity="0.2"/>
<rect x="83" y="166" width="35" height="144" fill="#5961FF" fill-opacity="0.2"/>
<rect x="83" y="275" width="35" height="35" fill="#5961FF" fill-opacity="0.2"/>
<rect x="119" y="131" width="35" height="35" fill="#5961FF" fill-opacity="0.2"/>
<rect x="336" y="275" width="35" height="35" fill="#5961FF" fill-opacity="0.2"/>
<rect x="336" y="166" width="36" height="37" fill="#5961FF" fill-opacity="0.2"/>
</svg>
