<svg width="642" height="1263" viewBox="0 0 642 1263" fill="none" xmlns="http://www.w3.org/2000/svg">
<path d="M266.616 589.639C308.456 636.108 266.389 708.969 205.227 695.968C174.06 689.343 142.172 703.541 126.241 731.135C94.9759 785.287 12.6818 767.795 6.14564 705.608C2.8151 673.919 -20.5413 647.98 -51.708 641.355C-112.871 628.354 -121.665 544.683 -64.5418 519.25C-35.4335 506.29 -17.9807 476.061 -21.3113 444.372C-27.8474 382.185 49.0115 347.966 90.8519 394.434C112.172 418.113 146.315 425.37 175.423 412.41C232.547 386.977 288.843 449.5 257.578 503.652C241.646 531.246 245.295 565.96 266.616 589.639Z" stroke="url(#paint0_linear_674_14644)" stroke-opacity="0.7" stroke-width="9"/>
<path d="M237.567 622.145C280.703 670.053 237.334 745.171 174.276 731.768C143.956 725.323 112.936 739.135 97.4374 765.979C65.2041 821.808 -19.6399 803.774 -26.3785 739.661C-29.6186 708.834 -52.3398 683.599 -82.659 677.155C-145.717 663.752 -154.784 577.487 -95.8905 551.266C-67.5737 538.659 -50.5955 509.252 -53.8355 478.425C-60.5741 414.311 18.6663 379.031 61.803 426.939C82.5437 449.974 115.758 457.034 144.075 444.427C202.968 418.206 261.008 482.666 228.775 538.496C213.276 565.339 216.826 599.11 237.567 622.145Z" stroke="url(#paint1_linear_674_14644)" stroke-opacity="0.7" stroke-width="5"/>
<path d="M207.399 655.65C250.86 703.918 207.164 779.601 143.633 766.097C113.525 759.697 82.7213 773.412 67.3314 800.068C34.8558 856.318 -50.6256 838.148 -57.4148 773.553C-60.6322 742.942 -83.1947 717.883 -113.302 711.484C-176.834 697.98 -185.969 611.067 -126.633 584.649C-98.514 572.13 -81.6544 542.928 -84.8718 512.317C-91.661 447.722 -11.8253 412.177 31.6355 460.445C52.2313 483.319 85.2135 490.329 113.332 477.81C172.668 451.392 231.144 516.336 198.669 572.586C183.279 599.242 186.803 632.776 207.399 655.65Z" stroke="url(#paint2_linear_674_14644)" stroke-opacity="0.7" stroke-width="4"/>
<path d="M177.607 688.821C221.716 737.809 177.369 814.62 112.89 800.915C83.206 794.606 52.8356 808.127 37.6623 834.408C4.70236 891.497 -82.054 873.056 -88.9445 807.497C-92.1166 777.317 -114.362 752.611 -144.045 746.302C-208.524 732.596 -217.795 644.388 -157.575 617.576C-129.852 605.233 -113.229 576.442 -116.401 546.261C-123.292 480.703 -42.2655 444.627 1.84348 493.615C22.1493 516.167 54.6674 523.079 82.3905 510.736C142.611 483.924 201.959 549.837 169 606.925C153.826 633.206 157.301 666.269 177.607 688.821Z" stroke="url(#paint3_linear_674_14644)" stroke-opacity="0.7" stroke-width="2"/>
<path d="M147.44 722.326C191.873 771.674 147.2 849.05 82.2465 835.244C52.7749 828.979 22.6212 842.405 7.55621 868.498C-25.6459 926.006 -113.04 907.43 -119.981 841.389C-123.13 811.424 -145.216 786.895 -174.688 780.631C-239.641 766.825 -248.98 677.968 -188.317 650.959C-160.792 638.704 -144.288 610.119 -147.438 580.154C-154.379 514.113 -72.7571 477.773 -28.324 527.121C-8.16307 549.512 24.1229 556.374 51.6481 544.119C112.311 517.11 172.096 583.508 138.894 641.015C123.828 667.109 127.279 699.935 147.44 722.326Z" stroke="url(#paint4_linear_674_14644)" stroke-opacity="0.7"/>
<defs>
<linearGradient id="paint0_linear_674_14644" x1="923.802" y1="445.858" x2="230.904" y2="1346.72" gradientUnits="userSpaceOnUse">
<stop stop-color="#93E5FF"/>
<stop offset="1" stop-color="#5024FF"/>
</linearGradient>
<linearGradient id="paint1_linear_674_14644" x1="893.267" y1="479.702" x2="200.369" y2="1380.57" gradientUnits="userSpaceOnUse">
<stop stop-color="#93E5FF"/>
<stop offset="1" stop-color="#5024FF"/>
</linearGradient>
<linearGradient id="paint2_linear_674_14644" x1="862.728" y1="513.542" x2="169.83" y2="1414.41" gradientUnits="userSpaceOnUse">
<stop stop-color="#93E5FF"/>
<stop offset="1" stop-color="#5024FF"/>
</linearGradient>
<linearGradient id="paint3_linear_674_14644" x1="832.193" y1="547.382" x2="139.294" y2="1448.25" gradientUnits="userSpaceOnUse">
<stop stop-color="#93E5FF"/>
<stop offset="1" stop-color="#5024FF"/>
</linearGradient>
<linearGradient id="paint4_linear_674_14644" x1="801.654" y1="581.222" x2="108.755" y2="1482.09" gradientUnits="userSpaceOnUse">
<stop stop-color="#93E5FF"/>
<stop offset="1" stop-color="#5024FF"/>
</linearGradient>
</defs>
</svg>
